<?xml version="1.0" encoding="UTF-8"?>
<svg version="1.1" viewBox="0 0 15000 15000" xmlns="http://www.w3.org/2000/svg">
  <rect x="0" y="0" width="15000" height="15000" fill="#F4F8F4" />
  <path d="m2518
    14310h5487s498-471
    748-708c194-165
    211-277
    544-270
    362
    006
    725
    013
    1087
    019l-1022
    959h1522l816-820v-5807h-1500c-235
    0-268-032-420-184l-869-1027c-241
    527-468
    975-708
    1484-027
    052-091
    169-043
    260l2388
    4822-876-003c-458
    010-649-306-810-589-646-1302-1295-2603-1942-3905l-122
    2317c-032
    401-303
    503-658
    514l-4012
    009c0-461
    457-1070
    1201-1099
    0
    0
    1433
    016
    2182
    019
    095
    0
    121-053
    132-132
    035-596
    068-1196
    105-1792
    023-296
    049-501
    135-725
    280-600
    560-1197
    840-1795l-1025-012c-027-001-048
    005-062
    029l-742
    1300c-306
    558-1133
    151-856-441l910-1522c160-238
    233-320
    649-333
    0
    0
    1943-003
    2916-003
    316-007
    352
    092
    503
    253
    406
    501
    850
    1035
    1246
    1502
    055
    066
    086
    093
    217
    093h1221v-4573l-8366
    008s013
    5319
    006
    7922c-853
    027-1440
    672-1472
    1503
    480
    006
    974-017
    1466-011v1918l-816
    820zm-2018
    193v-14000h14000v14000h-14000zm8132-11850c557
    0
    984
    428
    984
    988
    0
    561-427
    989-984
    989s-985-428-985-989c0-560
    428-988
    985-988z" fill="#0F8558" />
</svg>
