<?xml version="1.0" encoding="UTF-8" standalone="no"?>
<svg
   xmlns:dc="http://purl.org/dc/elements/1.1/"
   xmlns:cc="http://creativecommons.org/ns#"
   xmlns:rdf="http://www.w3.org/1999/02/22-rdf-syntax-ns#"
   xmlns:svg="http://www.w3.org/2000/svg"
   xmlns="http://www.w3.org/2000/svg"
   xmlns:sodipodi="http://sodipodi.sourceforge.net/DTD/sodipodi-0.dtd"
   xmlns:inkscape="http://www.inkscape.org/namespaces/inkscape"
   version="1.1"
   id="svg2"
   width="480"
   height="480"
   viewBox="0 0 480 480"
   sodipodi:docname="ISO_7010_E015.svg"
   inkscape:version="1.0.2-2 (e86c870879, 2021-01-15)">
  <sodipodi:namedview
     pagecolor="#ffffff"
     bordercolor="#666666"
     borderopacity="1"
     objecttolerance="10"
     gridtolerance="10"
     guidetolerance="10"
     inkscape:pageopacity="0"
     inkscape:pageshadow="2"
     inkscape:window-width="1920"
     inkscape:window-height="1001"
     id="namedview7"
     showgrid="false"
     inkscape:zoom="1.5494423"
     inkscape:cx="240"
     inkscape:cy="291.63148"
     inkscape:window-x="-9"
     inkscape:window-y="-9"
     inkscape:window-maximized="1"
     inkscape:current-layer="svg2" />
  <metadata
     id="metadata8">
    <rdf:RDF>
      <cc:Work
         rdf:about="">
        <dc:format>image/svg+xml</dc:format>
        <dc:type
           rdf:resource="http://purl.org/dc/dcmitype/StillImage" />
        <dc:title />
      </cc:Work>
    </rdf:RDF>
  </metadata>
  <defs
     id="defs6" />
  <g
     id="g10"
     transform="translate(7.909795,4.1970343)">
    <path
       style="fill:#237f52;fill-opacity:1"
       d="M -7.909795,235.80297 V -4.1970343 h 240.000005 240 v 240.0000043 240 h -240 -240.000005 z m 283.413465,98.96295 c 15.74531,-56.18446 26.5344,-96.37089 26,-96.84297 -0.94297,-0.833 -20.41346,-6.20652 -20.41346,-5.63376 0,0.38594 -8.62638,29.57983 -10.16656,34.40625 l -1.08258,3.39247 -11.12543,-0.62968 c -12.8695,-0.72839 -19.36861,-2.15922 -29.12543,-6.4122 -3.85,-1.6782 -8.8,-3.54192 -11,-4.14159 -12.96574,-3.53418 -32.27034,1.73589 -47,12.83079 -9.60625,7.23576 -18.46533,8.85431 -27.2609,4.98052 -7.01374,-3.08902 -10.42277,-4.98736 -13.4735,-7.5028 -6.82844,-5.63029 -21.55011,-9.1203 -42.349152,-10.03955 L 73.423104,258.50675 70.120841,247.40486 C 64.915033,229.90343 66.903944,231.55744 55.04079,234.8641 c -5.600958,1.56118 -10.341432,2.99638 -10.534387,3.18934 -0.261366,0.26136 40.934065,148.41753 52.135015,187.49953 l 1.50466,5.25 75.222062,-5.1e-4 75.22207,-5.1e-4 z m -175.24096,21.79497 c -7.799372,-28.19186 -14.178842,-51.59542 -14.176592,-52.00792 0.0125,-2.29716 24.739782,0.82487 32.144552,4.05853 2.55225,1.11457 7.27725,3.79254 10.5,5.95105 14.3489,9.61052 27.18999,11.35557 39.83394,5.41326 3.83592,-1.80278 8.55387,-4.49167 10.48433,-5.97531 3.77306,-2.89976 6.64871,-4.73385 9.04127,-5.76651 0.825,-0.35608 3.525,-1.60604 6,-2.77768 6.0393,-2.85897 22.85484,-3.10951 27.5,-0.40974 7.47648,4.34533 15.28824,6.55438 32.80003,9.27535 3.36683,0.52314 3.71934,0.84071 3.09226,2.78575 -0.38927,1.20741 -6.43047,21.9953 -13.42489,46.1953 l -12.71712,44 -58.44855,0.25792 -58.44855,0.25792 z m 46.97513,-47.3252 c -2.39381,-0.86739 -7.46091,-3.56959 -11.26023,-6.00489 -3.79932,-2.43531 -7.20532,-4.42783 -7.56889,-4.42783 -0.36356,0 -1.37146,-0.61719 -2.23977,-1.37152 -3.96334,-3.44314 -24.29262,-7.62848 -37.053442,-7.62848 h -7.71272 l -1.790573,-8.53239 c -0.984815,-4.69281 -1.513132,-8.80982 -1.174036,-9.14892 0.339095,-0.33909 7.311819,-0.12551 15.494959,0.47464 16.590342,1.21672 23.524642,3.10339 31.657072,8.61321 21.08674,14.28651 35.74608,14.04624 57.5,-0.94244 9.51361,-6.55498 15.91807,-8.77884 25.5,-8.85452 6.36585,-0.0503 9.02134,0.41204 13,2.26328 2.75,1.27955 5.9,2.73312 7,3.23014 5.07983,2.29528 18.90662,5.08452 27.82749,5.61356 9.3679,0.55555 9.80143,0.68103 9.27035,2.68312 -0.30643,1.15518 -1.29226,5.38883 -2.19073,9.40813 l -1.63359,7.30781 -5.63676,-0.62265 c -13.33445,-1.47294 -17.33074,-2.67135 -31.13676,-9.33738 -4.82653,-2.33041 -6.7245,-2.65559 -15.5,-2.65559 -12.46626,0 -18.60232,1.87695 -29.78341,9.11041 -18.02162,11.65885 -24.40577,13.78023 -32.56896,10.82231 z m 37.85237,-111.97442 c 0,-21.5417 0,-21.5417 2.95091,-27.85331 3.39563,-7.26279 8.09908,-11.81002 16.00346,-15.47191 5.29078,-2.45108 6.5151,-2.58711 26.64157,-2.96013 l 21.09594,-0.39099 5.04788,3.62655 c 5.8889,4.23075 16.07703,9.56057 18.31024,9.57882 0.8525,0.007 1.9775,0.3866 2.5,0.84363 0.5225,0.45702 3.875,1.69452 7.45,2.75 8.90008,2.62763 30.76518,2.6512 39.5,0.0426 14.15044,-4.226 22.48285,-8.06583 29.41249,-13.55421 l 3.87532,-3.06935 h 32.60609 32.6061 v -28 -28.000004 h -50.5 -50.5 v -9 -9 h 12.79983 c 12.15106,0 13.00695,-0.134298 16.88613,-2.649604 4.86463,-3.154283 7.31404,-7.792668 7.31404,-13.850396 0,-6.057728 -2.44941,-10.696113 -7.31404,-13.850396 -4.0863,-2.649604 -4.0863,-2.649604 -46.23609,-2.649604 h -42.14979 l -4.22697,3.062002 c -9.52064,6.896717 -9.52064,19.979279 0,26.875996 4.17248,3.022535 4.38615,3.062002 16.57693,3.062002 h 12.34996 v 9 9 h -40.04216 c -50.45006,0 -54.07366,0.570963 -74.65298,11.762934 -14.73603,8.01411 -25.53948,18.76301 -33.52973,33.36042 -10.17997,18.5978 -11.75685,26.25291 -11.76758,57.12665 l -0.008,21.75 h 28.5 28.5 z"
       id="path837" />
  </g>
  <path
     style="opacity:0.98;fill:#ffffff;fill-opacity:1;stroke:none;stroke-width:3.574;stroke-linecap:round;stroke-linejoin:round;stroke-miterlimit:4;stroke-dasharray:none"
     d="m 136.61815,198.85616 c 0.18336,-13.22249 0.65483,-25.78346 1.04772,-27.91326 1.88058,-10.19452 7.92435,-24.01187 15.09331,-34.50653 4.53902,-6.6447 14.45825,-16.43607 21.10626,-20.83422 11.37714,-7.52682 23.52482,-12.89598 33.21949,-14.6827 5.91015,-1.089243 31.8526,-1.888854 62.11913,-1.91467 l 27.26787,-0.02326 v -8.976117 -8.976118 l -12.42382,-0.220739 c -14.04259,-0.249501 -14.6056,-0.41903 -19.68221,-5.926505 -3.31398,-3.595243 -4.28757,-6.59246 -3.86231,-11.890259 0.39888,-4.96916 2.22543,-7.968766 7.44176,-12.221001 l 3.40459,-2.775346 34.34302,0.03033 c 18.88867,0.01668 38.04443,0.264359 42.56838,0.550392 7.49128,0.473647 8.49771,0.688453 11.27732,2.406954 1.84853,1.14286 3.81873,3.127093 4.99649,5.032071 1.74446,2.821597 1.94541,3.688089 1.95324,8.422296 0.008,4.754179 -0.18465,5.590043 -1.94272,8.434886 -2.35546,3.811531 -6.27451,6.70334 -10.08118,7.43877 -1.54628,0.298733 -7.67607,0.5558 -13.62176,0.571259 l -10.81034,0.02811 v 9.035508 9.035509 h 50.34069 50.3407 v 27.75192 27.75192 l -32.10833,0.005 -32.10833,0.005 -5.46886,3.91748 c -3.00788,2.15461 -7.79992,5.01859 -10.64899,6.36441 -6.88793,3.25363 -18.30424,6.95838 -23.89654,7.75475 -5.81885,0.82862 -21.28961,0.82844 -27.10653,-3.3e-4 -4.35808,-0.62091 -12.22405,-2.8611 -13.55326,-3.8599 -0.35497,-0.26673 -1.66189,-0.69949 -2.90427,-0.9617 -3.8314,-0.80863 -13.06832,-5.82938 -19.84454,-10.78657 l -3.387,-2.47777 -17.58828,0.38977 c -22.84857,0.50634 -25.72752,0.88565 -32.17266,4.23878 -6.19996,3.22557 -10.97038,8.12528 -14.02288,14.4029 -2.80187,5.7622 -3.31356,10.75537 -3.32827,32.47745 l -0.0115,16.94211 h -28.13941 -28.13941 z"
     id="path836" />
  <path
     style="opacity:0.98;fill:#ffffff;fill-opacity:1;stroke:none;stroke-width:2.30664;stroke-linecap:round;stroke-linejoin:round;stroke-miterlimit:4;stroke-dasharray:none"
     d="M 105.82502,433.4567 C 102.75277,423.33495 56.763131,258.25467 53.595498,245.97832 l -0.955369,-3.70259 4.454286,-1.29921 c 2.449857,-0.71457 6.44598,-1.88007 8.880273,-2.59 5.596937,-1.63228 6.30426,-1.61698 7.45832,0.16134 0.518306,0.79868 2.446001,6.53461 4.283765,12.74653 1.837764,6.21191 3.380774,11.33906 3.428909,11.39366 0.04813,0.0546 5.896061,0.42757 12.995389,0.82882 24.811389,1.4023 36.151999,4.04224 45.182109,10.51778 3.54449,2.54178 11.12655,6.49207 15.25934,7.95021 3.91026,1.37962 10.78086,1.19221 15.06568,-0.41095 1.97679,-0.73961 6.64242,-3.35378 10.36806,-5.80927 14.07453,-9.27619 25.92931,-13.52566 37.61309,-13.48279 5.78971,0.0212 8.35829,0.688 19.74061,5.12428 5.35115,2.08562 12.10394,4.24079 15.00619,4.78926 6.49343,1.22716 24.75945,2.57455 25.42614,1.87557 0.439,-0.46027 10.27953,-32.90929 10.27953,-33.89662 0,-0.22715 0.27598,-1.13889 0.61329,-2.02608 l 0.61329,-1.61308 6.97008,1.85814 c 12.76637,3.40336 12.80353,3.4187 12.57656,5.19153 -0.62207,4.85906 -36.81256,136.67068 -51.51143,187.61297 l -0.97767,3.38832 h -75.09905 c -70.96205,0 -75.11794,-0.0622 -75.44187,-1.12944 z m 135.318,-27.91327 c 1.01014,-3.37218 7.02025,-23.9925 13.35581,-45.82294 9.60155,-33.08405 11.36933,-39.81006 10.61895,-40.40266 -0.49514,-0.39103 -3.93487,-1.20895 -7.64385,-1.8176 -10.60308,-1.74001 -18.86816,-4.07265 -24.85794,-7.01563 l -5.52386,-2.71405 -10.64899,-0.002 -10.64899,-0.002 -5.80855,2.61251 c -3.19469,1.43688 -8.46953,4.42067 -11.72187,6.63064 -19.53931,13.27705 -31.94329,13.64863 -51.66549,1.54769 -10.76069,-6.60243 -13.20257,-7.51331 -25.39262,-9.47203 -6.24808,-1.00396 -16.455956,-1.49714 -17.125684,-0.82742 -0.200864,0.20087 0.40398,3.22196 1.344099,6.71354 2.847398,10.57517 26.171775,95.35341 26.473025,96.22279 0.22301,0.64357 12.32295,0.77628 58.84505,0.64539 l 58.56431,-0.16512 z m -67.88015,-94.36185 c 3.33858,-1.67102 9.11963,-4.97082 12.84677,-7.33289 13.64742,-8.64904 18.83943,-10.18638 33.23777,-9.84164 l 9.03551,0.21635 7.40617,3.43715 c 4.0734,1.89043 9.58958,4.14988 12.25819,5.021 4.6951,1.53264 20.98609,4.01844 21.69426,3.31028 0.19193,-0.19192 1.23304,-4.20901 2.31357,-8.92686 1.78096,-7.77599 1.86803,-8.64854 0.93136,-9.33345 -0.56829,-0.41555 -4.00208,-0.96001 -7.63064,-1.20993 -12.94187,-0.89135 -23.70623,-3.35978 -33.10055,-7.59043 -7.49587,-3.3757 -12.63334,-4.16821 -20.48935,-3.16072 -7.38291,0.94682 -12.27629,2.96895 -21.46123,8.86861 -13.34142,8.56944 -19.64904,10.88622 -29.3654,10.78586 -8.81951,-0.0911 -15.22793,-2.51828 -28.39732,-10.75544 -5.74695,-3.59459 -10.23163,-5.26241 -17.61041,-6.54916 -6.56895,-1.14553 -28.050697,-2.67793 -28.682555,-2.04607 -0.456879,0.45688 1.256018,11.73869 2.425131,15.97287 l 0.64097,2.3214 10.480396,0.33331 c 11.235378,0.35731 21.322648,1.98103 28.506458,4.58862 2.20081,0.79885 8.31006,4.02127 13.57611,7.16095 12.50865,7.45778 14.25923,8.13803 20.4131,7.93228 4.38445,-0.14659 5.54191,-0.4844 10.97169,-3.20209 z"
     id="path838" />
</svg>
