<?xml version="1.0" encoding="UTF-8" standalone="no"?>
<!-- Created with Inkscape (http://www.inkscape.org/) -->

<svg
   width="105.83334mm"
   height="105.83334mm"
   viewBox="0 0 105.83334 105.83334"
   version="1.1"
   id="svg1"
   inkscape:version="1.4 (86a8ad7, 2024-10-11)"
   sodipodi:docname="ISO_7010_E072.svg"
   xmlns:inkscape="http://www.inkscape.org/namespaces/inkscape"
   xmlns:sodipodi="http://sodipodi.sourceforge.net/DTD/sodipodi-0.dtd"
   xmlns="http://www.w3.org/2000/svg"
   xmlns:svg="http://www.w3.org/2000/svg">
  <sodipodi:namedview
     id="namedview1"
     pagecolor="#ffffff"
     bordercolor="#000000"
     borderopacity="0.25"
     inkscape:showpageshadow="2"
     inkscape:pageopacity="0.0"
     inkscape:pagecheckerboard="0"
     inkscape:deskcolor="#d1d1d1"
     inkscape:document-units="mm"
     inkscape:zoom="0.71891835"
     inkscape:cx="329.66191"
     inkscape:cy="263.59043"
     inkscape:window-width="1920"
     inkscape:window-height="1009"
     inkscape:window-x="1912"
     inkscape:window-y="-8"
     inkscape:window-maximized="1"
     inkscape:current-layer="layer1" />
  <defs
     id="defs1" />
  <g
     inkscape:label="Ebene 1"
     inkscape:groupmode="layer"
     id="layer1"
     transform="translate(-160.60208,-70.114563)">
    <rect
       width="105.83334"
       height="105.83334"
       style="fill:#ffffff;stroke-width:0.529167"
       id="rect1662"
       x="160.60208"
       y="70.114563"
       inkscape:label="1" />
    <rect
       x="163.24792"
       y="72.760406"
       width="100.54166"
       height="100.54166"
       style="fill:#008855;stroke-width:0.529167"
       id="rect1664"
       inkscape:label="1" />
    <path
       id="path5"
       d="m 247.54268,84.42262 v 18.25928 h -3.89493 c -1.27833,-3.50453 -4.65229,-6.02993 -8.58037,-6.02993 -5.01521,0 -9.13223,4.116 -9.13223,9.13119 0,5.01519 4.11702,9.12807 9.13223,9.12807 3.92924,0 7.30394,-2.52482 8.58141,-6.02991 h 3.89389 v 51.91116 h 4.59658 V 84.42262 Z m -36.0897,12.88141 c -9.00552,-0.10499 -10.61965,4.29728 -13.79082,10.83115 l -8.71784,18.05157 c -0.59385,1.27073 0.47278,1.39594 0.97657,1.04064 l 6.9507,-5.19803 2.57938,1.06751 1.30107,-0.22735 3.54458,-14.96271 c 1.97003,-7.23669 15.81907,-5.661 15.02678,3.05784 -0.54765,3.84969 -0.78697,9.87347 -3.67479,13.46531 l 1.30107,2.21252 c 0,0 3.13387,-3.01191 4.39095,-6.24591 5.15163,-13.25331 -0.8821,-22.98755 -9.88765,-23.09254 z m 23.6144,3.94866 c 2.52944,0 4.53045,2.00101 4.53045,4.53047 0,2.52946 -2.00101,4.53149 -4.53045,4.53149 -2.52947,0 -4.53047,-2.00203 -4.53047,-4.53149 0,-2.52946 2.001,-4.53047 4.53047,-4.53047 z m -24.39566,18.00609 -7.38266,5.75713 c -0.87202,0.64586 -1.30135,0.76491 -2.24456,0.45468 l -2.37478,-0.5198 c -1.35468,-0.35429 -2.02926,-0.39401 -2.99171,0.45471 l -7.70922,7.41675 c -0.89583,0.76305 -1.5245,1.34027 -0.38959,2.7313 l 0.60557,0.67172 c -2.59982,2.93048 -4.39423,5.55795 -5.36131,7.94793 -1.2128,2.99715 -1.06804,5.77023 0.55493,7.8818 0.99335,1.29241 1.25689,2.31049 1.15949,3.12503 -0.0974,0.81457 -0.56684,1.5451 -1.43334,2.22286 -1.73299,1.35554 -4.99897,2.23734 -8.20629,2.23734 v 1.99963 c 3.54956,0 7.12248,-0.84954 9.43707,-2.65999 1.1573,-0.90522 2.01374,-2.11485 2.1867,-3.56112 0.17298,-1.44625 -0.35131,-3.01169 -1.55837,-4.58213 -1.17147,-1.52416 -1.33189,-3.32659 -0.28523,-5.91316 0.81818,-2.02197 2.43445,-4.44018 4.85495,-7.20078 l 0.41955,0.46606 c 1.5861,1.53568 2.92112,1.46141 4.91179,-0.32552 l 17.92136,-17.23828 z"
       style="fill:#ffffff;fill-opacity:1;stroke-width:1"
       inkscape:label="1"
       sodipodi:nodetypes="cccsssccccccscccccccccccsssssscccccccccsscccscssccccc" />
  </g>
</svg>
