<?xml version="1.0" encoding="UTF-8" standalone="no"?>
<!-- Created with Inkscape (http://www.inkscape.org/) -->

<svg
   width="105.83334mm"
   height="105.83334mm"
   viewBox="0 0 105.83334 105.83334"
   version="1.1"
   id="svg1"
   inkscape:version="1.4 (86a8ad7, 2024-10-11)"
   sodipodi:docname="ISO_7010_E073.svg"
   xmlns:inkscape="http://www.inkscape.org/namespaces/inkscape"
   xmlns:sodipodi="http://sodipodi.sourceforge.net/DTD/sodipodi-0.dtd"
   xmlns="http://www.w3.org/2000/svg"
   xmlns:svg="http://www.w3.org/2000/svg">
  <sodipodi:namedview
     id="namedview1"
     pagecolor="#ffffff"
     bordercolor="#000000"
     borderopacity="0.25"
     inkscape:showpageshadow="2"
     inkscape:pageopacity="0.0"
     inkscape:pagecheckerboard="0"
     inkscape:deskcolor="#d1d1d1"
     inkscape:document-units="mm"
     inkscape:zoom="0.71891835"
     inkscape:cx="200.30091"
     inkscape:cy="199.60542"
     inkscape:window-width="1920"
     inkscape:window-height="1009"
     inkscape:window-x="1912"
     inkscape:window-y="-8"
     inkscape:window-maximized="1"
     inkscape:current-layer="layer1" />
  <defs
     id="defs1" />
  <g
     inkscape:label="Ebene 1"
     inkscape:groupmode="layer"
     id="layer1"
     transform="translate(-51.85833,-95.514565)">
    <rect
       width="105.83334"
       height="105.83334"
       style="fill:#ffffff;stroke-width:0.529167"
       id="rect1662"
       x="51.85833"
       y="95.514565"
       inkscape:label="1" />
    <rect
       x="54.504173"
       y="98.160408"
       width="100.54166"
       height="100.54166"
       style="fill:#008855;stroke-width:0.529167"
       id="rect1664"
       inkscape:label="1" />
    <path
       id="rect11"
       d="m 110.29923,110.91787 -10e-6,7.82071 c -0.4372,-0.25434 -0.91705,-0.39514 -1.39887,-0.41496 l -5.2e-4,0.002 c -0.98157,-0.0404 -2.00115,0.37809 -2.62155,1.26298 l -10e-4,0.002 -6.733426,9.75237 c -1.02826,1.32192 -1.05715,3.10889 0.13125,4.3155 l 8.164356,8.22948 -5.36866,13.99087 c -0.13035,0.27338 -0.23417,0.3916 -0.50591,0.65319 l -10.897516,8.11734 -0.008,0.007 c -0.25739,0.21715 -0.47926,0.41745 -0.663,0.76481 l -0.003,0.006 -7.24865,13.29737 c -0.99867,1.72974 -0.40739,3.94158 1.32239,4.94027 1.13249,0.65383 2.45066,0.56806 3.5202,-0.0155 0.25429,0.72517 0.69846,1.38466 1.43558,1.81023 1.72978,0.99869 3.94263,0.40578 4.94129,-1.32396 l 0.002,-0.004 6.542236,-12.1791 0.002,-0.004 c 0.1708,-0.33503 0.21808,-0.41315 0.59066,-0.67179 l 0.003,-5.2e-4 11.16262,-7.92406 0.007,-0.005 c 0.41347,-0.32781 0.63648,-0.55788 0.84079,-1.0573 l 0.001,-0.002 5.49113,-13.7573 3.14142,4.80849 0.004,0.005 c 0.13421,0.19296 0.1698,0.33193 0.16433,0.50488 -0.005,0.16891 -0.0686,0.38302 -0.18294,0.65216 l -4.94646,7.71219 -0.001,0.002 c -0.94979,1.45427 -0.54051,3.40422 0.91467,4.35322 1.45583,0.94941 3.45021,0.56794 4.36511,-0.92397 l 6.16138,-10.04642 c 0.41166,-0.64283 0.60454,-1.17848 0.57619,-1.7017 -0.0283,-0.52398 -0.26713,-0.97857 -0.59066,-1.4888 l -6.20169,-10.50014 -0.0129,-0.017 c -0.34595,-0.45335 -0.60675,-0.65789 -1.20923,-0.92139 l -0.006,-0.001 -6.48436,-2.57815 -2.54971,-6.77219 v -20.69952 z m -1.42679,8.10649 v 5e-4 c 0.45584,0.0188 0.90665,0.16848 1.30069,0.46251 0.0468,0.0349 0.0826,0.0782 0.1261,0.11576 v 3.6897 l -4.84933,6.90241 -0.003,0.005 c -0.14744,0.22596 -0.24939,0.46916 -0.24133,0.73123 0.008,0.2621 0.13422,0.5079 0.32194,0.71106 l 0.002,0.001 3.98167,4.23384 -1.03869,5.65289 -8.29821,-8.36486 c -0.949226,-0.96378 -0.929456,-2.29767 -0.077,-3.39359 h -5.2e-4 l 0.005,-0.009 6.74946,-9.77253 c 0.47256,-0.67411 1.25773,-0.99777 2.02158,-0.96634 z m 1.42678,5.487 10e-6,7.07657 -0.63098,3.43234 -3.62768,-3.85713 c -0.10872,-0.11854 -0.13231,-0.18815 -0.13436,-0.25579 -0.002,-0.0682 0.0262,-0.17022 0.12764,-0.32557 z m 8.71472,4.20904 c -2.78518,0 -5.05086,2.26567 -5.05085,5.05086 0,2.78517 2.26566,5.05085 5.05085,5.05085 2.78517,0 5.05085,-2.26568 5.05085,-5.05086 0,-2.78517 -2.26569,-5.05085 -5.05085,-5.05085 z m 0,0.69918 c 2.40687,1e-5 4.35167,1.9448 4.35167,4.35167 0,2.40687 -1.9448,4.34961 -4.35167,4.34961 -2.40687,0 -4.34961,-1.94274 -4.3496,-4.3496 -10e-6,-2.40688 1.94273,-4.35167 4.3496,-4.35168 z m -33.588126,0.30076 v 18.55442 l -2.9528,-5.18521 -2.12906,1.21285 6.30659,11.07425 6.30453,-11.07425 -2.12856,-1.21285 -2.95124,5.18469 v -18.5539 z m 26.197356,4.89737 1.1281,2.99724 -0.64388,-0.2558 c -0.32469,-0.13007 -0.45038,-0.16011 -0.80151,-0.5979 l -0.0641,-0.0682 z m 0.57361,3.5326 0.88884,0.35347 2.40244,6.38307 -5.34645,-2.20503 z m 2.836,1.12759 3.35329,1.33273 c -0.61268,1.18591 -1.14888,2.23635 -1.64228,3.21221 z m 5.08135,2.01952 0.79891,0.3178 c 0.56035,0.24523 0.6073,0.28538 0.92398,0.70022 0.001,0.002 0.002,4.8e-4 0.004,0.002 l 6.17585,10.45983 0.004,0.005 c 0.30559,0.48171 0.4658,0.82389 0.48368,1.15445 0.0179,0.33057 -0.0959,0.70734 -0.46973,1.28984 l -0.002,0.003 -6.16345,10.05003 c -0.70579,1.15086 -2.2449,1.44841 -3.38584,0.70435 -1.14101,-0.74409 -1.45566,-2.24675 -0.71003,-3.38687 l 4.98677,-7.77472 0.0114,-0.0274 c 0.13474,-0.31339 0.2345,-0.6096 0.24443,-0.92345 0.01,-0.31296 -0.087,-0.63305 -0.28939,-0.92502 l -3.87263,-5.92521 -4.60902,11.54864 c -0.0871,-0.0261 -0.80369,-0.24779 -1.73065,-0.5457 2.43604,-6.38092 3.52626,-8.84761 7.59954,-16.7261 z m -10.68204,3.09179 5.83789,2.40761 c -1.76441,3.64489 -2.84764,6.28273 -4.50773,10.63242 -1.14895,-0.40351 -2.28654,-0.83093 -2.75229,-1.08934 -1.13539,-0.62992 -2.03414,-1.50798 -2.40244,-1.85156 z m -5.39916,11.23808 c 0.39889,0.38205 1.65742,1.54121 3.07837,2.32956 0.93593,0.51927 2.53137,1.07091 3.98064,1.55289 0.55488,0.18452 1.01289,0.32775 1.45108,0.46559 l -7.54477,0.16899 -0.93896,-4.18579 z m -1.62056,1.44435 1.01545,4.5222 -7.292586,4.91443 -0.0109,0.007 c -0.25009,0.19909 -0.55187,0.48086 -0.73484,0.80771 l -5.2e-4,0.002 -7.12876,13.24106 c -0.4431,0.76747 -0.56035,1.6228 -0.44649,2.43034 -0.88293,0.55077 -2.02438,0.62203 -2.99619,0.061 -1.40441,-0.81083 -1.87849,-2.57929 -1.06764,-3.98373 l 0.002,-0.004 7.25951,-13.3165 0.001,-0.002 c 0.13425,-0.25572 0.24451,-0.34652 0.4966,-0.55914 6.4e-4,-5.4e-4 2.9e-4,-0.001 10e-4,-0.002 z m 10.53682,4.74545 -0.0837,0.2098 c -0.17721,0.43313 -0.22503,0.45179 -0.62839,0.77154 l -11.13472,7.90339 c -0.4263,0.29588 -0.62695,0.55829 -0.81546,0.92758 l -10e-4,0.002 -6.527246,12.15327 c -0.81084,1.40441 -2.58194,1.87897 -3.98632,1.06815 -1.39985,-0.8082 -1.72565,-2.51414 -0.90433,-3.93671 l 0.003,-0.006 7.1298,-13.24726 c 0.0921,-0.16348 0.36299,-0.44173 0.56017,-0.59893 4.6e-4,-3.6e-4 -1.7e-4,-7.9e-4 5.1e-4,-0.002 l 7.492046,-5.04723 z"
       style="fill:#ffffff;fill-opacity:1" />
  </g>
</svg>
