<?xml version="1.0" encoding="UTF-8" standalone="no"?>
<!-- Created with Inkscape (http://www.inkscape.org/) -->

<svg
   width="105.83334mm"
   height="105.83334mm"
   viewBox="0 0 105.83334 105.83334"
   version="1.1"
   id="svg1"
   inkscape:version="1.4 (86a8ad7, 2024-10-11)"
   sodipodi:docname="ISO_7010_E074.svg"
   xmlns:inkscape="http://www.inkscape.org/namespaces/inkscape"
   xmlns:sodipodi="http://sodipodi.sourceforge.net/DTD/sodipodi-0.dtd"
   xmlns="http://www.w3.org/2000/svg"
   xmlns:svg="http://www.w3.org/2000/svg">
  <sodipodi:namedview
     id="namedview1"
     pagecolor="#ffffff"
     bordercolor="#000000"
     borderopacity="0.25"
     inkscape:showpageshadow="2"
     inkscape:pageopacity="0.0"
     inkscape:pagecheckerboard="0"
     inkscape:deskcolor="#d1d1d1"
     inkscape:document-units="mm"
     inkscape:zoom="0.71891835"
     inkscape:cx="230.90244"
     inkscape:cy="316.44762"
     inkscape:window-width="1920"
     inkscape:window-height="1009"
     inkscape:window-x="1912"
     inkscape:window-y="-8"
     inkscape:window-maximized="1"
     inkscape:current-layer="layer1" />
  <defs
     id="defs1" />
  <g
     inkscape:label="Ebene 1"
     inkscape:groupmode="layer"
     id="layer1"
     transform="translate(-43.920834,-64.822906)">
    <rect
       width="105.83334"
       height="105.83334"
       style="fill:#ffffff;stroke-width:0.529167"
       id="rect1662"
       x="43.920834"
       y="64.822906"
       inkscape:label="1" />
    <rect
       x="46.566677"
       y="67.46875"
       width="100.54166"
       height="100.54166"
       style="fill:#008855;stroke-width:0.529167"
       id="rect1664"
       inkscape:label="1" />
    <path
       id="path2"
       d="m 65.462715,83.68175 v 6.82413 h 11.91051 v -6.82413 z m 28.26304,3.49593 -0.95324,15.3318 c -0.41212,5.09213 3.41486,9.70835 6.55309,12.24906 0.22852,0.27482 0.22809,1.11891 0.22809,2.32892 l -0.18111,32.69383 c -0.006,0.20066 -0.0368,1.51551 1.653885,1.96175 0.24631,0.0663 1.68285,0.0784 1.85536,0 1.69063,-0.44624 1.6603,-1.76109 1.65488,-1.96175 l -0.18209,-32.69383 c 0,-1.21001 -10e-4,-2.0541 0.22706,-2.32892 3.13822,-2.54071 6.96521,-7.15693 6.55309,-12.24906 l -0.95324,-15.3318 h -2.35758 l -0.18624,14.69868 c -0.006,0.44582 -0.35908,0.80495 -0.80494,0.80495 -0.44586,0 -0.79932,-0.35913 -0.80494,-0.80495 l -0.18624,-14.69868 h -1.05247 -1.84409 l -0.18605,14.69868 c -0.006,0.44582 -0.3591,0.80495 -0.80496,0.80495 -0.44586,0 -0.7993,-0.35913 -0.80494,-0.80495 l -0.18624,-14.69868 h -1.844125 -1.05349 l -0.18625,14.69868 c -0.006,0.44582 -0.35907,0.80495 -0.80494,0.80495 -0.44586,0 -0.79931,-0.35913 -0.80493,-0.80495 l -0.18625,-14.69868 z m 31.282385,0.23933 c -0.7097,0 -1.41983,0.0976 -2.02514,0.29457 -4.01432,1.30571 -6.15627,8.26312 -6.39661,9.39239 -1.53154,6.02331 -0.18407,9.6105 2.93646,14.33046 1.07736,1.88839 2.80745,3.41589 3.01931,5.65303 l -0.18209,32.69383 c -0.006,0.20066 -0.0368,1.51551 1.65388,1.96175 0.24631,0.0663 1.68283,0.0784 1.85536,0 1.69066,-0.44624 1.6603,-1.76109 1.65488,-1.96175 l -0.18209,-32.69383 c 0.27782,-2.14142 2.00841,-3.88424 3.15022,-5.65303 3.62482,-4.44336 3.95689,-8.60645 2.93545,-14.33046 -0.24598,-1.15633 -2.39127,-8.08953 -6.39558,-9.39239 -0.60523,-0.19693 -1.31443,-0.29459 -2.02413,-0.29457 z m -56.421815,5.18358 -0.0275,0.001 -0.0378,0.004 c -3.13789,0.15854 -5.50051,1.8591 -6.873231,4.05438 -1.3727,2.19529 -1.90241,4.83788 -1.90241,7.29053 l 0.004,12.28181 1.46874,2.07218 -1.47284,1.81649 v 10.05926 l 1.52295,2.05174 -1.52295,1.96479 v 11.04012 c 0,3.67407 2.671521,6.56026 5.969081,6.56024 h 11.40729 c 3.29756,0 5.96908,-2.88617 5.96908,-6.56024 v -11.04113 l -1.52398,-1.96378 1.52398,-2.05277 v -10.05823 l -1.47284,-1.81649 1.47284,-2.07218 V 103.9505 c 0,-2.45265 -0.52971,-5.09524 -1.90241,-7.29053 -1.37272,-2.19528 -3.73534,-3.89683 -6.87323,-4.05541 l -0.0348,-0.004 h -0.0265 z m 0.0849,2.96917 h 5.49655 c 2.20994,0.11163 3.53237,1.10887 4.50442,2.66339 0.97202,1.55453 1.4493,3.71224 1.4493,5.71745 v 11.33468 l -2.22663,3.13488 2.22663,2.75237 v 8.02489 l -2.27676,3.07353 2.27676,2.9385 v 10.02754 c 0,2.35192 -1.35463,3.59106 -2.99988,3.59106 h -11.40729 c -1.64523,0 -2.99988,-1.23914 -2.99988,-3.59106 v -10.02754 l 2.27676,-2.9385 -2.27676,-3.0725 v -8.02592 l 2.22665,-2.75237 -2.22665,-3.13488 V 103.9506 c 0,-2.00521 0.48137,-4.16191 1.4534,-5.71644 0.97204,-1.55452 2.29344,-2.55273 4.50338,-2.6644 z"
       style="fill:#ffffff;fill-opacity:1;stroke-width:1"
       inkscape:label="1" />
  </g>
</svg>
