<?xml version="1.0" encoding="UTF-8" standalone="no"?>
<!-- Created with Inkscape (http://www.inkscape.org/) -->

<svg
   width="105.83334mm"
   height="105.83334mm"
   viewBox="0 0 105.83334 105.83334"
   version="1.1"
   id="svg1"
   inkscape:version="1.4 (86a8ad7, 2024-10-11)"
   sodipodi:docname="ISO_7010_E075.svg"
   xmlns:inkscape="http://www.inkscape.org/namespaces/inkscape"
   xmlns:sodipodi="http://sodipodi.sourceforge.net/DTD/sodipodi-0.dtd"
   xmlns="http://www.w3.org/2000/svg"
   xmlns:svg="http://www.w3.org/2000/svg">
  <sodipodi:namedview
     id="namedview1"
     pagecolor="#ffffff"
     bordercolor="#000000"
     borderopacity="0.25"
     inkscape:showpageshadow="2"
     inkscape:pageopacity="0.0"
     inkscape:pagecheckerboard="0"
     inkscape:deskcolor="#d1d1d1"
     inkscape:document-units="mm"
     inkscape:zoom="0.71891835"
     inkscape:cx="308.79724"
     inkscape:cy="402.68829"
     inkscape:window-width="1920"
     inkscape:window-height="1009"
     inkscape:window-x="1912"
     inkscape:window-y="-8"
     inkscape:window-maximized="1"
     inkscape:current-layer="layer1" />
  <defs
     id="defs1" />
  <g
     inkscape:label="Ebene 1"
     inkscape:groupmode="layer"
     id="layer1"
     transform="translate(-23.283316,-42.068752)">
    <rect
       width="105.83334"
       height="105.83334"
       style="fill:#ffffff;stroke-width:0.529167"
       id="rect1662"
       x="23.283316"
       y="42.068752"
       inkscape:label="1" />
    <rect
       x="25.929159"
       y="44.714596"
       width="100.54166"
       height="100.54166"
       style="fill:#008855;stroke-width:0.529167"
       id="rect1664"
       inkscape:label="1" />
    <path
       id="path2531"
       style="display:inline;fill:#ffffff;stroke-width:1.00668"
       d="m 98.36494,57.560315 v 7.66568 h -7.66568 v 7.24658 h 7.66568 v 7.66569 h 7.24503 v -7.66569 h 7.66672 v -7.24658 h -7.66672 v -7.66568 z m -31.37587,11.72538 c -6.56869,-2e-5 -11.89386,5.32464 -11.89384,11.89333 -4e-5,6.56868 5.32515,11.89387 11.89384,11.89385 6.56871,4e-5 11.89338,-5.32515 11.89334,-11.89385 2e-5,-6.56869 -5.32465,-11.89337 -11.89334,-11.89333 z M 55.3071,96.595655 c 1.02183,6.492855 3.92599,12.322665 11.68094,17.990125 7.75528,-5.66756 10.65923,-11.49727 11.68094,-17.990125 z m 24.74216,0.0455 c -1.0426,6.603385 -3.9724,12.730855 -11.42928,18.457275 a 2.4130259,2.4130259 0 0 1 1.13637,2.04742 2.4130259,2.4130259 0 0 1 -2.41278,2.41329 2.4130259,2.4130259 0 0 1 -1.65157,-0.66095 l -2.68253,2.27325 -1.45211,-0.96015 4.06074,-4.91443 c -7.64432,-5.77942 -10.63445,-11.9676 -11.69024,-18.642275 -8.52137,0.59716 -15.20889,7.639495 -15.20889,16.317875 v 19.35386 h 11.77344 v -17.63769 c 0,-0.46291 0.37218,-0.83561 0.83509,-0.83561 0.46294,0 0.83561,0.3727 0.83561,0.83561 v 17.63769 h 29.55581 v -1.46348 c -3.10137,-3.67962 -4.80544,-8.33524 -4.81262,-13.14752 0.0159,-7.71848 4.37816,-14.76974 11.27683,-18.231445 -2.33994,-1.61292 -5.1208,-2.63143 -8.13387,-2.84272 z m 23.88795,3.808545 c -1.51272,-5e-5 -2.34147,0.64836 -3.29231,0.98651 -0.24124,0.0792 -0.48577,0.1533 -0.73277,0.22118 0.075,0.0138 0.15014,0.0282 0.22479,0.0429 -0.92135,-0.16622 -1.85631,-0.24825 -2.79259,-0.24495 -0.8073,0.006 -1.61279,0.0762 -2.40916,0.20877 -0.19719,0.0394 -0.39365,0.0826 -0.58911,0.12971 -0.0912,-0.0549 -0.18562,-0.11761 -0.28835,-0.19068 -0.25703,-0.18335 -0.55027,-0.4132 -0.94413,-0.54209 -0.67117,-0.21968 -1.37905,-0.29301 -2.06293,-0.2713 -0.71568,0.0227 -1.39203,0.20359 -2.02416,0.39274 -0.97117,0.29063 -1.92727,0.66976 -2.8267,1.15652 -0.44372,0.2401 -0.90266,0.51874 -1.3007,0.90124 -0.60441,0.58085 -1.02326,1.27538 -1.43505,1.90531 l -0.014,0.0202 -0.0119,0.0217 c -0.61967,1.222 -1.21467,2.06805 -2.15336,3.24787 l -0.0269,0.0336 -0.0196,0.0387 c -0.32403,0.6236 -0.50071,1.30689 -0.58652,1.97611 -0.0563,0.43984 -0.11212,0.9584 0.0599,1.4826 0.12171,0.3709 0.36113,0.62829 0.55811,0.83354 0.31082,0.32392 0.6745,0.66488 1.13274,0.89297 -0.40217,1.8748 -0.45119,3.80773 -0.14417,5.70042 0.006,0.0274 0.0121,0.0547 0.0181,0.0816 -0.1804,0.10655 -0.37166,0.25222 -0.49971,0.50178 -0.26172,0.51009 -0.12167,1.00607 -0.0884,1.3286 0.0236,0.22738 0.084,0.33797 0.0853,0.3483 0.0934,0.66364 -0.12313,1.49729 0.0909,2.40812 0.17329,0.73722 0.54521,1.36744 0.87798,1.94717 0.36339,0.63295 0.79495,1.21584 1.24696,1.76475 l 5.1e-4,5.2e-4 c 0.5762,0.69779 0.97993,1.51933 1.52756,2.2319 l 0.002,0.004 0.004,0.004 c 0.52192,0.65121 1.19218,1.18993 1.92856,1.57096 0.84845,0.43901 1.78485,0.64209 2.6846,0.75241 l 0.0315,0.004 h 0.032 c 0.3459,-0.008 1.01222,0.004 1.64279,-0.0139 0.31528,-0.01 0.62287,-0.0258 0.89245,-0.0589 0.26961,-0.0331 0.48436,-0.0517 0.72451,-0.20309 l 0.006,-0.004 0.006,-0.004 c 0.1087,-0.0737 0.182,-0.15842 0.23306,-0.24339 2.05199,0.51825 4.1888,0.60817 6.27714,0.26458 0.29479,-0.0494 0.5881,-0.10758 0.87953,-0.17415 0.069,0.0541 0.14491,0.10557 0.23875,0.14831 0.72056,0.32713 1.47696,0.30206 2.11666,0.3297 0.90474,0.0392 1.8788,0.0766 2.83497,-0.18035 0.81948,-0.22024 1.56121,-0.63802 2.21951,-1.10588 0.6456,-0.4588 1.18751,-1.03119 1.66604,-1.61902 0.63092,-0.77499 1.12692,-1.63193 1.58337,-2.47943 0.34529,-0.64114 0.66485,-1.31249 0.90279,-2.0221 0.17724,-0.52902 0.36943,-1.10817 0.39636,-1.74253 0.0197,-0.43483 -0.0231,-0.90106 -0.19586,-1.34359 -0.0991,-0.25347 -0.24673,-0.446 -0.38912,-0.60978 0.66671,-2.23374 0.81815,-4.58928 0.44287,-6.89002 -9.8e-4,-0.008 -0.004,-0.0211 -0.006,-0.0295 -0.0585,-0.27813 -0.11839,-0.57962 -0.18241,-0.84026 0.15185,-0.11323 0.30539,-0.24297 0.44338,-0.41909 0.25951,-0.33121 0.52587,-0.7193 0.65939,-1.19218 0.12013,-0.42568 0.096,-0.84227 0.0558,-1.20767 -0.0591,-0.5371 -0.21257,-1.05034 -0.40307,-1.52859 -0.27991,-0.70274 -0.68504,-1.3039 -1.0263,-1.88774 l -0.0212,-0.0367 -0.0289,-0.032 c -0.62014,-0.7057 -0.8316,-1.67766 -1.30897,-2.61018 l -0.002,-0.002 -0.001,-0.002 c -0.36264,-0.68958 -0.7711,-1.41387 -1.36426,-2.01641 -0.44203,-0.44904 -0.97003,-0.76775 -1.48053,-1.03663 -0.73175,-0.38539 -1.51279,-0.66272 -2.29701,-0.86765 -0.46153,-0.12054 -0.95382,-0.2171 -1.46606,-0.22117 -0.10608,-0.006 -0.20853,-0.01 -0.30851,-0.01 z m -0.14831,0.88677 -5.2e-4,5.2e-4 c 0.13254,-0.004 0.27258,-0.002 0.42116,0.006 l 0.0119,0.001 h 0.0119 c 0.40662,0.002 0.83264,0.0814 1.26091,0.19327 0.73389,0.19162 1.45078,0.44844 2.10736,0.79425 0.47532,0.25032 0.92234,0.5294 1.26194,0.87437 0.48421,0.49188 0.85807,1.13499 1.21026,1.80454 0.39006,0.76305 0.62238,1.81733 1.38183,2.72026 0.35934,0.61475 0.73409,1.18135 0.9679,1.76837 0.16995,0.42682 0.29784,0.86529 0.3452,1.29656 0.0354,0.32351 0.0403,0.62847 -0.0279,0.86971 -0.0807,0.28596 -0.26771,0.58201 -0.49247,0.87075 -1.59375,-5.43017 -6.03489,-9.55081 -11.57036,-10.7332 0.29677,0.0634 0.59117,0.13479 0.88367,0.21549 0.72584,-0.3241 1.29901,-0.65219 2.22726,-0.68212 z m -12.70982,0.34003 c 0.60043,-0.0197 1.20897,0.0479 1.75906,0.22789 0.10555,0.0344 0.21708,0.094 0.33642,0.16899 -5.14307,1.49399 -9.14165,5.55025 -10.56215,10.71408 -0.24139,-0.15617 -0.47642,-0.36722 -0.70125,-0.60152 -0.17547,-0.18275 -0.30953,-0.35599 -0.35553,-0.49609 -0.0959,-0.29201 -0.0763,-0.68067 -0.0233,-1.09296 0.0748,-0.58428 0.22996,-1.16092 0.48628,-1.66088 0.91841,-1.15763 1.55684,-2.06894 2.18798,-3.30522 0.42178,-0.64525 0.81288,-1.27602 1.3069,-1.7508 0.30554,-0.29361 0.694,-0.53639 1.10845,-0.76068 0.83771,-0.45334 1.73764,-0.8116 2.65876,-1.08727 0.61171,-0.18295 1.21635,-0.33704 1.79834,-0.35553 z m 4.94336,0.13642 h 1.19993 c 0,0 0.46818,1.16503 0.46406,2.52698 -2.2e-4,0.0439 -0.001,0.0882 -0.002,0.13229 -0.0391,1.5114 -0.46251,2.90835 -0.46251,2.90835 h -1.19941 c 0,0 0.43882,-1.62126 0.45682,-2.90835 0.0178,-1.19717 -0.45682,-2.65927 -0.45682,-2.65927 z m 1.74408,0 h 1.19993 c 0,0 0.46818,1.16503 0.46406,2.52698 -2.1e-4,0.0439 -0.001,0.0882 -0.002,0.13229 -0.0392,1.5114 -0.46199,2.90835 -0.46199,2.90835 h -1.19993 c 0,0 0.43884,-1.62126 0.45682,-2.90835 0.0178,-1.19717 -0.45682,-2.65927 -0.45682,-2.65927 z m -0.60874,6.00429 c 4.74078,0.75506 8.5484,4.01212 9.24543,7.57681 l 5.1e-4,0.004 5.2e-4,0.006 h 5.2e-4 c 0.80913,4.93138 -2.52878,9.58622 -7.45898,10.40247 -4.93369,0.81676 -9.59589,-2.51944 -10.41487,-7.45278 -0.81901,-4.9334 2.51556,-9.59688 7.44864,-10.41798 0.38988,-0.065 0.7837,-0.10424 1.17874,-0.11782 z m -12.22096,7.08846 h 5.1e-4 c 0.0439,1.4e-4 0.0877,-4e-5 0.13178,0.002 1.51139,0.0392 2.90835,0.46251 2.90835,0.46251 v 1.19992 c 0,0 -1.62124,-0.43934 -2.90835,-0.45733 -1.19717,-0.0178 -2.65875,0.45733 -2.65875,0.45733 v -1.19992 c 0,0 1.1645,-0.46822 2.52646,-0.46406 z m 22.01829,0.51935 c 0,0 1.4621,0.47407 2.65927,0.45734 1.28709,-0.0178 2.90835,-0.45734 2.90835,-0.45734 v 1.19993 c 0,0 -1.39694,0.42328 -2.90835,0.4625 -0.0441,9.8e-4 -0.0886,0.002 -0.13229,0.002 -1.36197,0.004 -2.52646,-0.46405 -2.52646,-0.46405 z m -22.01829,1.22473 h 5.1e-4 c 0.0439,2.1e-4 0.0877,8.7e-4 0.13178,0.002 1.51139,0.0392 2.90835,0.46199 2.90835,0.46199 v 1.19992 c 0,0 -1.62124,-0.43933 -2.90835,-0.45733 -1.19717,-0.0178 -2.65875,0.45733 -2.65875,0.45733 v -1.19992 c 0,0 1.1645,-0.46826 2.52646,-0.46406 z m 22.01829,0.51987 c 0,0 1.4621,0.47355 2.65927,0.45682 1.28709,-0.0178 2.90835,-0.45682 2.90835,-0.45682 v 1.19941 c 0,0 -1.39694,0.4233 -2.90835,0.4625 -0.0441,9.8e-4 -0.0886,0.002 -0.13229,0.002 -1.36197,0.004 -2.52646,-0.46457 -2.52646,-0.46457 z m -24.42383,3.45715 c 1.26614,5.02122 4.96932,9.07132 9.85728,10.78126 -0.17586,0.0138 -0.36541,0.0253 -0.56948,0.031 -0.58475,0.0178 -1.2018,0.006 -1.5937,0.0134 -0.83421,-0.10379 -1.66063,-0.29226 -2.36419,-0.65629 -0.62583,-0.32381 -1.20216,-0.78813 -1.64021,-1.33326 -0.46817,-0.60988 -0.88691,-1.45531 -1.54513,-2.25257 l -5.2e-4,-5.2e-4 c -0.4321,-0.52475 -0.83312,-1.06851 -1.1622,-1.64176 -0.33371,-0.58135 -0.6509,-1.1429 -0.78393,-1.70894 -0.14731,-0.62709 0.0516,-1.42782 -0.0754,-2.32854 -0.0305,-0.21588 -0.0811,-0.31693 -0.0811,-0.31677 -0.0244,-0.23538 -0.0427,-0.43287 -0.0413,-0.58705 z m 29.32482,1.76527 h 5.2e-4 c 0.0668,0.2472 0.0914,0.52395 0.0796,0.80202 -0.0201,0.47331 -0.17641,0.97595 -0.3514,1.4981 -0.21536,0.64233 -0.51148,1.26933 -0.84232,1.8836 -0.44714,0.83027 -0.91871,1.63761 -1.49087,2.34043 -0.44898,0.5515 -0.94003,1.0635 -1.4919,1.45572 -0.60388,0.42916 -1.2599,0.78986 -1.9358,0.97152 -0.78591,0.21122 -1.66882,0.19021 -2.56625,0.15141 -0.27765,-0.0118 -0.54502,-0.0231 -0.80098,-0.0434 4.32044,-1.47859 7.76282,-4.7963 9.39942,-9.05939 z m -15.88947,3.96616 h 1.19993 c 0,0 -0.47353,1.46158 -0.45682,2.65876 0.0178,1.2871 0.45682,2.90835 0.45682,2.90835 h -1.19993 c 0,0 -0.42277,-1.39698 -0.46198,-2.90835 -9.8e-4,-0.0443 -0.002,-0.0884 -0.002,-0.13229 -0.004,-1.36197 0.46405,-2.52647 0.46405,-2.52647 z m 1.74408,0 h 5.2e-4 1.19941 c 0,0 -0.47353,1.46158 -0.45682,2.65876 0.0178,1.2871 0.45682,2.90835 0.45682,2.90835 h -1.19941 c 0,0 -0.42331,-1.39698 -0.4625,-2.90835 -9.8e-4,-0.0443 -0.002,-0.0884 -0.002,-0.13229 -0.004,-1.36197 0.46405,-2.52647 0.46405,-2.52647 z"
       inkscape:label="1" />
  </g>
</svg>
