<?xml version="1.0" encoding="UTF-8" standalone="no"?>
<!-- Created with Inkscape (http://www.inkscape.org/) -->

<svg
   width="105.83334mm"
   height="105.83334mm"
   viewBox="0 0 105.83334 105.83334"
   version="1.1"
   id="svg1"
   inkscape:version="1.4 (86a8ad7, 2024-10-11)"
   sodipodi:docname="ISO_7010_E076.svg"
   xmlns:inkscape="http://www.inkscape.org/namespaces/inkscape"
   xmlns:sodipodi="http://sodipodi.sourceforge.net/DTD/sodipodi-0.dtd"
   xmlns="http://www.w3.org/2000/svg"
   xmlns:svg="http://www.w3.org/2000/svg">
  <sodipodi:namedview
     id="namedview1"
     pagecolor="#ffffff"
     bordercolor="#000000"
     borderopacity="0.25"
     inkscape:showpageshadow="2"
     inkscape:pageopacity="0.0"
     inkscape:pagecheckerboard="0"
     inkscape:deskcolor="#d1d1d1"
     inkscape:document-units="mm"
     inkscape:zoom="0.71891835"
     inkscape:cx="-168.3084"
     inkscape:cy="131.44747"
     inkscape:window-width="1920"
     inkscape:window-height="1009"
     inkscape:window-x="1912"
     inkscape:window-y="-8"
     inkscape:window-maximized="1"
     inkscape:current-layer="layer1" />
  <defs
     id="defs1" />
  <g
     inkscape:label="Ebene 1"
     inkscape:groupmode="layer"
     id="layer1"
     transform="translate(-149.48956,-113.77084)">
    <rect
       width="105.83334"
       height="105.83334"
       style="fill:#ffffff;stroke-width:0.529167"
       id="rect1662-3"
       x="149.48956"
       y="113.77084"
       inkscape:label="1" />
    <rect
       x="152.13541"
       y="116.41668"
       width="100.54166"
       height="100.54166"
       style="fill:#008855;stroke-width:0.529167"
       id="rect1664-4"
       inkscape:label="1" />
    <path
       id="path1"
       style="fill:#ffffff;fill-opacity:1;stroke-width:0.200001"
       d="m 170.76272,128.92303 c -0.45319,-0.005 -0.75471,0.30401 -0.75471,0.92292 v 24.82113 c 0,0.99023 0.77247,1.18875 1.70166,0.57372 0,0 4.85462,-3.14205 9.52504,-5.1823 4.67044,-2.04023 11.2222,-2.43458 11.2222,-2.43458 V 136.8891 c 0,0 -6.55176,-0.3936 -11.2222,-2.43383 -4.67042,-2.04024 -9.52504,-5.1823 -9.52504,-5.1823 -0.34844,-0.23063 -0.67503,-0.34687 -0.94695,-0.34994 z m 24.09572,8.13353 v 10.3999 h 2.86413 l -2.75223,12.81646 h 4.17753 l 4.03184,-12.81646 h 2.4098 l 2.45786,-1.53794 v -7.32401 l -2.45786,-1.53795 z m -27.27825,1.57324 -2.94371,0.76897 v 5.71548 l 2.94371,0.76897 z m 46.1774,20.54523 -6.0061,1.61003 c -0.18748,6.70197 -0.88944,10.70792 -4.20682,16.5562 v 27.11077 h 17.58499 v -2.32043 h -16.36695 v -3.27565 h 16.36695 v -3.19154 h -16.36695 v -3.27563 h 4.8917 v -30.56891 l 2.93095,-0.85082 v 31.41973 h 8.5443 V 175.4391 Z m 16.20549,0 -7.37208,16.26407 v 16.94968 h 8.54431 v -31.41973 l 2.93096,0.85082 v 30.56891 h 4.89168 v 3.27563 H 222.591 v 3.19154 h 16.36695 v 3.27565 H 222.591 v 2.32043 h 17.58499 v -27.11077 c -3.31739,-5.84828 -4.01934,-9.85423 -4.20682,-16.5562 z m -14.17492,1.969 6.07217,12.76763 6.07218,-12.76763 a 8.373151,3.7269711 0 0 1 -6.07218,1.16771 8.373151,3.7269711 0 0 1 -6.07217,-1.16771 z"
       inkscape:label="1" />
  </g>
</svg>
