<?xml version="1.0" encoding="UTF-8" standalone="no"?>
<svg
   xmlns:dc="http://purl.org/dc/elements/1.1/"
   xmlns:cc="http://creativecommons.org/ns#"
   xmlns:rdf="http://www.w3.org/1999/02/22-rdf-syntax-ns#"
   xmlns:svg="http://www.w3.org/2000/svg"
   xmlns="http://www.w3.org/2000/svg"
   xmlns:sodipodi="http://sodipodi.sourceforge.net/DTD/sodipodi-0.dtd"
   xmlns:inkscape="http://www.inkscape.org/namespaces/inkscape"
   height="199.93752"
   width="199.94592"
   version="1.0"
   id="svg28"
   sodipodi:docname="ISO_7010_F013.svg"
   inkscape:version="1.0.2-2 (e86c870879, 2021-01-15)"
   xml:space="preserve"><defs
     id="defs32" /><sodipodi:namedview
     pagecolor="#ffffff"
     bordercolor="#666666"
     borderopacity="1"
     objecttolerance="10"
     gridtolerance="10"
     guidetolerance="10"
     inkscape:pageopacity="0"
     inkscape:pageshadow="2"
     inkscape:window-width="1920"
     inkscape:window-height="1001"
     id="namedview30"
     showgrid="false"
     inkscape:zoom="3.3589188"
     inkscape:cx="87.724818"
     inkscape:cy="104.64469"
     inkscape:window-x="-9"
     inkscape:window-y="-9"
     inkscape:window-maximized="1"
     inkscape:current-layer="svg28"
     inkscape:showpageshadow="0"
     inkscape:pagecheckerboard="0"
     inkscape:deskcolor="#d1d1d1"
     inkscape:document-rotation="0" /><metadata
     id="metadata2"><rdf:RDF><cc:Work
         rdf:about=""><dc:format>image/svg+xml</dc:format><dc:type
           rdf:resource="http://purl.org/dc/dcmitype/StillImage" /></cc:Work></rdf:RDF></metadata><path
     id="rect5042"
     style="fill:#ffffff;stroke-width:6.80315"
     d="M 0,0 H 199.94593 V 199.93752 H 0 Z" /><path
     fill="#a92121"
     d="M 5.3929615,5.3937596 H 194.55297 V 194.54376 H 5.3929615 Z"
     fill-rule="evenodd"
     id="path6"
     style="fill:#9b2423;fill-opacity:1" /><path
     id="path21456-8"
     style="fill:#ffffff;fill-opacity:1;stroke-width:4.224"
     d="M 74.05858,29.348438 A 43.026234,43.026234 0 0 0 31.03319,72.373829 43.026234,43.026234 0 0 0 47.57226,106.15508 v 21.17187 H 35.87304 v 11.0879 h 76.37304 v -11.0879 H 100.54687 V 106.15508 A 43.026234,43.026234 0 0 0 117.08593,72.373829 43.026234,43.026234 0 0 0 74.05858,29.348438 Z m 0,35.894532 a 7.1306581,7.1306581 0 0 1 7.13086,7.130859 7.1306581,7.1306581 0 0 1 -7.13086,7.130859 7.1306581,7.1306581 0 0 1 -7.1289,-7.130859 7.1306581,7.1306581 0 0 1 7.1289,-7.130859 z M 52.4121,109.45 a 43.026234,43.026234 0 0 0 21.64648,5.94922 43.026234,43.026234 0 0 0 21.64844,-5.94922 v 17.87695 H 52.4121 Z" /><path
     id="path14553-3-5"
     style="display:inline;fill:#ffffff;fill-opacity:1;stroke:none;stroke-width:0.137974px;stroke-linecap:butt;stroke-linejoin:miter;stroke-opacity:1"
     d="m 154.37962,49.483881 c -1.70298,6.429259 -2.21757,14.117086 -0.97603,20.703989 2.50218,9.381012 8.17733,16.651595 15.26999,22.684121 1.25162,1.12622 2.6661,1.899766 4.07202,2.626187 v -19.49566 c -4.21576,-0.668583 -7.37579,-4.443319 -9.65093,-7.772079 -3.83296,-5.902299 -6.27847,-12.355729 -8.71499,-18.746558 z m -24.30977,8.49498 c -0.97018,0.0029 -2.0033,0.03716 -3.03654,0.07164 5.60309,4.288636 7.35049,10.738957 9.19519,16.824049 1.92336,6.687833 4.31956,13.100283 8.10559,18.631315 7.10055,9.422835 17.86167,13.580285 28.41145,10.551915 -9.33307,-3.88332 -15.07797,-12.975122 -19.37519,-20.787802 -3.89554,-6.158051 -4.99648,-13.940913 -10.1835,-18.999773 -3.79599,-3.600119 -8.1111,-6.300331 -13.117,-6.291203 z m 1.51041,28.191436 c -0.65528,12.038321 3.40909,22.050233 10.71065,30.412533 7.73031,9.03015 20.08123,13.62717 30.45446,16.95503 V 114.0422 c -6.6361,-0.13002 -12.67907,-2.33511 -17.77923,-5.40605 -10.08125,-6.11552 -17.24079,-13.133126 -23.38605,-22.465853 z m -13.97085,37.461583 c 9.40823,2.24053 13.80524,8.29464 19.05386,14.60822 4.1985,5.3606 9.76751,8.54825 15.90386,9.63171 7.64256,1.2863 14.91732,0.0958 20.17841,-5.53701 -12.23816,-2.17459 -19.42139,-9.70008 -27.76887,-16.56913 -9.77171,-6.54139 -17.36072,-9.68928 -27.36726,-2.13379 z m 13.93067,19.39626 c 1.10899,6.1733 3.05133,11.9739 6.56028,16.68437 9.65344,11.37921 22.19104,11.1694 34.64518,11.39182 v -19.49566 c -7.90373,1.85327 -17.58849,2.73482 -24.91221,0.94639 -6.67908,-1.37093 -11.70911,-5.33102 -16.29325,-9.52694 z"
     sodipodi:nodetypes="ccccccccccccccccccccccccccccccccccccc" /></svg>
