<?xml version="1.0" encoding="UTF-8" standalone="no"?>
<svg
   xmlns:dc="http://purl.org/dc/elements/1.1/"
   xmlns:cc="http://creativecommons.org/ns#"
   xmlns:rdf="http://www.w3.org/1999/02/22-rdf-syntax-ns#"
   xmlns:svg="http://www.w3.org/2000/svg"
   xmlns="http://www.w3.org/2000/svg"
   xmlns:sodipodi="http://sodipodi.sourceforge.net/DTD/sodipodi-0.dtd"
   xmlns:inkscape="http://www.inkscape.org/namespaces/inkscape"
   width="200"
   height="200"
   viewBox="0 0 52.916666 52.916666"
   version="1.1"
   id="svg17691"
   inkscape:version="1.0.2-2 (e86c870879, 2021-01-15)"
   sodipodi:docname="ISO_7010_F018.svg"
   xml:space="preserve"><title
     id="title18027">ISO 7010-F007</title><sodipodi:namedview
     id="namedview17693"
     pagecolor="#ffffff"
     bordercolor="#666666"
     borderopacity="1.0"
     inkscape:pageshadow="2"
     inkscape:pageopacity="0.0"
     inkscape:pagecheckerboard="0"
     inkscape:document-units="mm"
     showgrid="true"
     fit-margin-top="0"
     fit-margin-left="0"
     fit-margin-right="0"
     fit-margin-bottom="0"
     inkscape:zoom="3.8535354"
     inkscape:cx="148.375"
     inkscape:cy="114.75"
     inkscape:window-width="1920"
     inkscape:window-height="1001"
     inkscape:window-x="-9"
     inkscape:window-y="-9"
     inkscape:window-maximized="1"
     inkscape:current-layer="layer1"
     units="px"
     inkscape:showpageshadow="2"
     inkscape:deskcolor="#d1d1d1"
     showguides="true"
     inkscape:document-rotation="0"><inkscape:grid
       type="xygrid"
       id="grid21"
       originx="3.0389402e-06"
       originy="-7.6505277e-07" /><sodipodi:guide
       position="-217.58672,-73.25651"
       orientation="0,-1"
       id="guide1102"
       inkscape:locked="false" /><sodipodi:guide
       position="-211.03602,-123.69504"
       orientation="0,-1"
       id="guide1601"
       inkscape:locked="false" /></sodipodi:namedview><defs
     id="defs17688" /><g
     inkscape:label="Ebene 1"
     inkscape:groupmode="layer"
     id="layer1"
     transform="translate(134.47767,-42.48032)"><path
       id="rect17879"
       style="fill:#ffffff;stroke:none;stroke-width:0.0406557"
       d="m -134.47767,42.48032 h 52.916657 v 52.916667 h -52.916657 z" /><path
       style="display:inline;fill:#9b2423;fill-opacity:1;stroke:none;stroke-width:0.0406557px;stroke-linecap:butt;stroke-linejoin:miter;stroke-opacity:1"
       d="m -133.42761,43.67039 h 50.893158 v 50.823152 h -50.893158 z"
       id="path14549"
       sodipodi:nodetypes="ccccc" /><path
       id="path14553-3-5"
       style="display:inline;fill:#ffffff;fill-opacity:1;stroke:none;stroke-width:0.040833px;stroke-linecap:butt;stroke-linejoin:miter;stroke-opacity:1"
       d="m -92.210816,54.098048 c -0.50399,1.902717 -0.65628,4.177903 -0.28885,6.127274 0.74051,2.776278 2.42005,4.927981 4.5191,6.713286 0.37041,0.333301 0.78902,0.562231 1.2051,0.777212 v -5.769673 c -1.24764,-0.197865 -2.18284,-1.314985 -2.85616,-2.30012 -1.13435,-1.746765 -1.85809,-3.656635 -2.57917,-5.547979 z m -7.19439,2.51406 c -0.28712,8.5e-4 -0.59287,0.011 -0.898654,0.0212 1.658214,1.269207 2.175354,3.178157 2.721284,4.979019 0.56921,1.979241 1.27836,3.876984 2.39882,5.513875 2.101384,2.788654 5.2861,4.019038 8.40827,3.122803 -2.762088,-1.149256 -4.462272,-3.839945 -5.73402,-6.152079 -1.15287,-1.822455 -1.47869,-4.125766 -3.01377,-5.622918 -1.12341,-1.065443 -2.40045,-1.864561 -3.88193,-1.86186 z m 0.447,8.343157 c -0.19393,3.562701 1.00891,6.525692 3.16978,9.000485 2.28776,2.672441 5.94297,4.032913 9.01289,5.017781 v -5.769673 c -1.963929,-0.03848 -3.752324,-0.691066 -5.2617,-1.599902 -2.98351,-1.809866 -5.10235,-3.886701 -6.92102,-6.648691 z m -4.134624,11.086628 c 2.78433,0.663078 4.085614,2.454769 5.638924,4.32325 1.24253,1.58645 2.89066,2.529826 4.70669,2.850472 2.26179,0.380676 4.41473,0.02834 5.97173,-1.638659 -3.62184,-0.643565 -5.74769,-2.870705 -8.2181,-4.903577 -2.891901,-1.935901 -5.137844,-2.867511 -8.099244,-0.631486 z m 4.122734,5.740253 c 0.3282,1.826967 0.90303,3.543633 1.94149,4.937682 2.856904,3.367636 6.567361,3.305546 10.25312,3.371371 v -5.769674 c -2.33908,0.548469 -5.20525,0.80936 -7.37268,0.280081 -1.97665,-0.405722 -3.46527,-1.577695 -4.82193,-2.819466 z"
       sodipodi:nodetypes="ccccccccccccccccccccccccccccccccccccc" /><path
       id="rect875"
       style="display:inline;fill:#ffffff;fill-opacity:1;stroke-width:1.91259"
       d="m 17.058907,13.938167 v 3.356901 h 0.730188 v -3.356901 z m -3.121256,0.612366 -0.679029,0.268201 1.232483,3.12229 0.679028,-0.268201 z m 6.972701,0 -1.232483,3.12229 0.679028,0.268201 1.232483,-3.12229 z m -10.217981,2.033468 -0.516765,0.515214 2.369881,2.377116 0.516765,-0.515214 z m 13.463777,0 -2.370398,2.377116 0.516765,0.515214 2.370398,-2.377116 z m -6.731889,2.772957 c -2.364855,0 -4.268473,1.920194 -4.268473,4.30568 v 4.800224 c 0,0.07102 0.0013,0.141716 0.0047,0.211874 h -0.0047 v 3.782714 h -2.155424 v 4.89996 H 23.84764 v -4.89996 h -2.154907 v -3.782714 h -0.0052 c 0.0033,-0.07016 0.0052,-0.140852 0.0052,-0.211874 v -4.800224 c 0,-2.385486 -1.903618,-4.30568 -4.268474,-4.30568 z m -9.0950516,0.255798 -0.3379639,0.646473 2.9744955,1.554943 0.337964,-0.646989 z m 18.1901046,0 -2.975013,1.554427 0.337964,0.646989 2.975012,-1.554943 z M 7.4078166,23.40839 v 0.730188 H 10.763684 V 23.40839 Z m 16.6759844,0 v 0.730188 h 3.356901 V 23.40839 Z"
       transform="translate(-134.47767,42.48032)" /></g><metadata
     id="metadata18025"><rdf:RDF><cc:Work
         rdf:about=""><dc:title>ISO 7010-F007</dc:title><dc:date>03.08.2021</dc:date><dc:creator><cc:Agent><dc:title>SicherheitsPerson</dc:title></cc:Agent></dc:creator><cc:license
           rdf:resource="http://creativecommons.org/publicdomain/zero/1.0/" /><dc:format>image/svg+xml</dc:format><dc:type
           rdf:resource="http://purl.org/dc/dcmitype/StillImage" /></cc:Work><cc:License
         rdf:about="http://creativecommons.org/publicdomain/zero/1.0/"><cc:permits
           rdf:resource="http://creativecommons.org/ns#Reproduction" /><cc:permits
           rdf:resource="http://creativecommons.org/ns#Distribution" /><cc:permits
           rdf:resource="http://creativecommons.org/ns#DerivativeWorks" /></cc:License></rdf:RDF></metadata></svg>
