<?xml version="1.0" encoding="UTF-8" standalone="no"?>
<svg
   xmlns:dc="http://purl.org/dc/elements/1.1/"
   xmlns:cc="http://creativecommons.org/ns#"
   xmlns:rdf="http://www.w3.org/1999/02/22-rdf-syntax-ns#"
   xmlns:svg="http://www.w3.org/2000/svg"
   xmlns="http://www.w3.org/2000/svg"
   xmlns:sodipodi="http://sodipodi.sourceforge.net/DTD/sodipodi-0.dtd"
   xmlns:inkscape="http://www.inkscape.org/namespaces/inkscape"
   width="200"
   height="200"
   version="1.0"
   id="svg30"
   sodipodi:docname="ISO_7010_F019.svg"
   inkscape:version="1.0.2-2 (e86c870879, 2021-01-15)">
  <metadata
     id="metadata36">
    <rdf:RDF>
      <cc:Work
         rdf:about="">
        <dc:format>image/svg+xml</dc:format>
        <dc:type
           rdf:resource="http://purl.org/dc/dcmitype/StillImage" />
      </cc:Work>
    </rdf:RDF>
  </metadata>
  <defs
     id="defs34" />
  <sodipodi:namedview
     pagecolor="#ffffff"
     bordercolor="#666666"
     borderopacity="1"
     objecttolerance="10"
     gridtolerance="10"
     guidetolerance="10"
     inkscape:pageopacity="0"
     inkscape:pageshadow="2"
     inkscape:window-width="1920"
     inkscape:window-height="1001"
     id="namedview32"
     showgrid="false"
     inkscape:zoom="3.5824985"
     inkscape:cx="100"
     inkscape:cy="126.96879"
     inkscape:window-x="-9"
     inkscape:window-y="-9"
     inkscape:window-maximized="1"
     inkscape:current-layer="svg30"
     inkscape:document-rotation="0" />
  <path
     d="m5.4189 5.423h189.16v189.15h-189.16v-189.15z"
     fill="#a92121"
     fill-rule="evenodd"
     id="path2"
     style="fill:#9b2423;fill-opacity:1" />
  <g
     fill="none"
     stroke="#fff"
     id="g24">
    <path
       d="m66.795 97.957c-2.9253-2.2106-3.3028-7.1699-1.4936-10.839 1.7726-3.5949 6.078-6.7824 10.117-6.7824"
       stroke-width="6"
       id="path18" />
    <path
       transform="matrix(.73881 -.59659 .59659 .73881 -40.227 68.309)"
       d="m86.562 86.177c7.2401 5.6632 7.5966 16.473 1.9465 23.37-6.9271 8.455-19.777 8.7901-27.909 1.9048-9.6817-8.1968-9.9939-23.11-1.8599-32.485 9.4727-10.918 26.468-11.206 37.091-1.8126 12.163 10.755 12.426 29.848 1.7634 41.725-12.043 13.415-33.247 13.653-46.384 1.7126-14.673-13.336-14.885-36.664-1.6604-51.066 14.635-15.937 40.096-16.123 55.768-1.6071 17.207 15.938 17.366 43.543 1.5529 60.489-17.246 18.481-47.004 18.614-65.227 1.4977-19.76-18.559-19.865-50.477-1.4418-69.983 9.0267-9.5571 21.621-15.341 34.731-16.111"
       stroke-width="6.3184"
       id="path20" />
    <path
       d="m64.686 39.046c-9.3546 4.9616-19.9 13.706-23.602 17.084"
       stroke-width="6"
       id="path22" />
  </g>
  <rect
     transform="rotate(-27)"
     x="42.2"
     y="59.107"
     width="5"
     height="11"
     fill="#fff"
     id="rect26" />
  <path
     d="m94.916 27.134-19.696 11.147-3.3173-6.8884 20.58-9.327z"
     fill="#fff"
     id="path28" />
  <path
     id="path14553-3-5"
     style="display:inline;fill:#ffffff;fill-opacity:1;stroke:none;stroke-width:0.15677px;stroke-linecap:butt;stroke-linejoin:miter;stroke-opacity:1"
     d="m 157.53215,42.101584 c -1.93497,7.305097 -2.51966,16.040218 -1.10899,23.524432 2.84304,10.658958 9.2913,18.919985 17.35017,25.774303 1.42212,1.279641 3.02929,2.158565 4.62674,2.983944 V 72.232769 c -4.79006,-0.759656 -8.38057,-5.048616 -10.96564,-8.830838 -4.35511,-6.706354 -7.13377,-14.038915 -9.90221,-21.300347 z m -27.62141,9.65222 c -1.10234,0.003 -2.27621,0.04226 -3.4502,0.08137 6.36638,4.872861 8.35183,12.201889 10.44782,19.115937 2.18537,7.598899 4.90801,14.884897 9.20979,21.169404 8.06784,10.706475 20.29491,15.430285 32.28185,11.989365 -10.60448,-4.412326 -17.13199,-14.742678 -22.01461,-23.619655 -4.42622,-6.996948 -5.67714,-15.840047 -11.57077,-21.588052 -4.3131,-4.090551 -9.21604,-7.158605 -14.90388,-7.148233 z m 1.71617,32.031871 c -0.74455,13.678262 3.8735,25.054075 12.16973,34.555535 8.78338,10.2603 22.81683,15.48355 34.60317,19.26476 v -22.1515 c -7.54012,-0.14773 -14.4063,-2.6532 -20.20124,-6.14249 -11.45458,-6.94862 -19.58944,-14.922211 -26.57186,-25.526305 z m -15.87406,42.564855 c 10.68988,2.54575 15.68589,9.42459 21.64951,16.59825 4.77045,6.09086 11.0981,9.71275 18.07039,10.94381 8.68369,1.46153 16.94946,0.10881 22.92725,-6.2913 -13.90533,-2.47083 -22.0671,-11.02149 -31.55174,-18.82629 -11.10287,-7.4325 -19.72571,-11.00922 -31.09541,-2.42447 z m 15.82841,22.03855 c 1.26005,7.01427 3.467,13.60506 7.45396,18.95722 10.9685,12.92937 25.21405,12.69099 39.36478,12.9437 v -22.15149 c -8.98043,2.10573 -19.98451,3.10737 -28.30592,1.07531 -7.58895,-1.55768 -13.30421,-6.05724 -18.51282,-10.82476 z"
     sodipodi:nodetypes="ccccccccccccccccccccccccccccccccccccc" />
  <rect
     transform="rotate(32)"
     x="111.20602"
     y="43.446659"
     width="6"
     height="10"
     id="rect14"
     style="fill:#ffffff;fill-opacity:1" />
</svg>
