<?xml version="1.0" encoding="UTF-8" standalone="no"?>
<svg xmlns:dc="http://purl.org/dc/elements/1.1/" xmlns:cc="http://creativecommons.org/ns#"
   xmlns:rdf="http://www.w3.org/1999/02/22-rdf-syntax-ns#" xmlns:svg="http://www.w3.org/2000/svg"
   xmlns="http://www.w3.org/2000/svg" xmlns:sodipodi="http://sodipodi.sourceforge.net/DTD/sodipodi-0.dtd"
   xmlns:inkscape="http://www.inkscape.org/namespaces/inkscape" version="1.1" width="420px" height="420px"
   viewBox="-10 -10 420 420" id="svg1115" sodipodi:docname="ISO_7010_M055.svg"
   inkscape:version="1.0.1 (c497b03c, 2020-09-10)">
   <metadata id="metadata1119">
      <rdf:RDF>
         <cc:Work rdf:about="">
            <dc:format>image/svg+xml</dc:format>
            <dc:type rdf:resource="http://purl.org/dc/dcmitype/StillImage" />
            <dc:title></dc:title>
         </cc:Work>
      </rdf:RDF>
   </metadata>
   <sodipodi:namedview pagecolor="#ffffff" bordercolor="#666666" borderopacity="1" objecttolerance="10"
      gridtolerance="10" guidetolerance="10" inkscape:pageopacity="0" inkscape:pageshadow="2"
      inkscape:window-width="2560" inkscape:window-height="1412" id="namedview1117" showgrid="false"
      inkscape:zoom="1.5919201" inkscape:cx="532.5417" inkscape:cy="188.64426" inkscape:window-x="1440"
      inkscape:window-y="28" inkscape:window-maximized="0" inkscape:current-layer="svg1115" />
   <defs id="def1">
      <symbol id="UpArrow">
         <title id="title3099">Up Arrow</title>
         <path d="M 36,9 58,31 58,46 42,30 42,62 30,62 30,30 14,46 14,31 z" style="stroke:none" id="path3101" />
      </symbol>
   </defs>
   <circle cx="200" cy="200" r="205" style="fill :#ffffff; stroke :#000000; stroke-width :2;" id="circle1111" />
   <path style="fill:#004488;stroke:none"
      d="M 178,398.89 C 142.55,394.9 106.46,380.26 77.5,358.14 69.014,351.66 51.872,334.85 44.721,326 35.367,314.42 27.339,301.74 20.351,287.5 -13.078,219.38 -4.8048,138.59 41.857,77.5 48.336,69.018 65.145,51.875 74,44.719 134.25,-3.9732 217.21,-13.615 286.79,19.988 c 40.75,19.681 72.6,51.431 92.8,92.512 33.41,67.96 25.14,149.01 -21.45,210 -6.48,8.48 -23.28,25.63 -32.14,32.78 -29.77,24.06 -66.92,39.47 -105.21,43.66 -11.13,1.22 -31.8,1.19 -42.79,-0.05 z"
      id="path1113" sodipodi:nodetypes="cccccccccccc" />
   <path id="path973"
      style="fill:#ffffff;fill-opacity:1;stroke:#100000;stroke-width:0.280761;stroke-miterlimit:4;stroke-dasharray:none;stroke-opacity:1"
      d="m 273.1129,192.55041 a 16.380679,16.380679 0 0 1 -16.38068,16.38067 16.380679,16.380679 0 0 1 -16.38068,-16.38067 16.380679,16.380679 0 0 1 16.38068,-16.38068 16.380679,16.380679 0 0 1 16.38068,16.38068 z m -84.35826,38.03584 25.93929,4.1623 23.65652,-9.2708 0.15985,49.39101 -7.51254,62.6273 c -1.11559,9.29996 17.27575,9.69705 18.06207,3.67636 l 8.47161,-64.86512 17.74238,28.45178 -0.31968,30.64607 c -0.0713,6.83882 17.36659,7.89381 17.42271,1.27874 l 0.31968,-37.67908 -16.14398,-24.2959 0.15985,-48.27211 3.83619,-1.11888 19.82034,-22.21797 1.43856,-29.41082 c 0.42591,-8.70716 -14.83902,-10.37476 -15.34476,-0.63936 l -1.27873,24.61558 -9.5905,11.66842 -35.64462,0.63937 -25.09511,9.27079 -23.48336,-3.73924 c -9.36493,-1.49118 -12.03019,13.57091 -2.61577,15.08156 z M 239.78903,73.308725 h 46.67368 v 32.447805 h -46.67368 z m -74.96562,4.795246 a 21.898274,21.898274 0 0 1 -21.89827,21.898279 21.898274,21.898274 0 0 1 -21.89828,-21.898279 21.898274,21.898274 0 0 1 21.89828,-21.89827 21.898274,21.898274 0 0 1 21.89827,21.89827 z M 84.013292,216.37892 109.83796,113.7486 c 1.01146,-4.01962 4.80627,-8.6057 8.95112,-8.63144 l 51.46895,-0.31967 43.15717,23.01716 45.18761,-13.40258 c 14.18855,-4.20831 20.7205,13.40424 11.2364,16.91909 l -49.03775,18.17362 c -4.12886,1.77022 -7.58447,1.70209 -12.44042,-0.77337 l -40.02112,-20.28406 -0.0277,69.35342 14.47579,136.80345 c 1.37384,12.98358 -19.60897,14.97816 -20.90617,5.15121 l -17.10478,-130.1247 -15.43414,124.19311 c -1.87446,15.08314 -22.6189,12.89955 -21.52992,-0.0583 l 15.132,-180.05651 v 0 l -17.57696,65.42896 c -3.59833,13.39454 -23.986799,6.31259 -21.354708,-2.75899" />
   <path id="path5953" style="fill:#ffffff;stroke:none;stroke-width:0.959566"
      d="m 211.98257,42.254478 -0.0206,52.536234 4.76034,0.01874 -0.17054,-32.233541 8.56863,12.129513 6.95497,-4.300774 z m 0,0 -20.13588,28.150172 6.95497,4.300774 8.56863,-12.129513 -0.17055,32.233541 4.76034,-0.01874 z"
      sodipodi:nodetypes="cccccccccccccc" />
</svg>
