<?xml version="1.0" encoding="UTF-8"?>
<svg xmlns="http://www.w3.org/2000/svg" xmlns:xlink="http://www.w3.org/1999/xlink" width="685pt" height="600pt"
	viewBox="0 0 685 600" version="1.1">
	<g id="surface1">
		<path
			style="fill-rule:evenodd;fill:rgb(0.784314%,1.960784%,1.960784%);fill-opacity:1;stroke-width:0.127844;stroke-linecap:butt;stroke-linejoin:miter;stroke:rgb(0.784314%,1.960784%,1.960784%);stroke-opacity:1;stroke-miterlimit:2.613;"
			d="M 197.46208 164.743687 L 104.11927 2.938542 L 103.544526 2.076193 L 102.826095 1.427453 L 102.032993 0.853307 L 101.099599 0.423828 L 100.165073 0.134495 L 99.158139 0.0644219 L 98.150073 0.134495 L 97.146533 0.423828 L 96.283285 0.853307 L 95.420036 1.427453 L 94.77062 2.076193 L 94.197007 2.938542 L 0.853066 164.743687 L 0.423139 165.67724 L 0.134635 166.610792 L 0.0644891 167.618937 L 0.134635 168.627083 L 0.423139 169.630708 L 0.853066 170.494188 L 1.42781 171.356536 L 2.076095 172.005276 L 2.939343 172.579422 L 3.802591 173.013422 L 4.810657 173.302755 L 5.814197 173.372828 L 192.50208 173.372828 L 193.50562 173.302755 L 194.442409 173.013422 L 195.376934 172.579422 L 196.170036 172.005276 L 196.888467 171.356536 L 197.46208 170.494188 L 197.892007 169.630708 L 198.181642 168.627083 L 198.251788 167.618937 L 198.181642 166.610792 L 197.892007 165.67724 Z M 197.46208 164.743687 "
			transform="matrix(3.452621,0,0,3.456221,0,0)" />
		<path
			style="fill-rule:evenodd;fill:rgb(92.156863%,74.901961%,16.862745%);fill-opacity:1;stroke-width:0.127844;stroke-linecap:butt;stroke-linejoin:miter;stroke:rgb(0.784314%,1.960784%,1.960784%);stroke-opacity:1;stroke-miterlimit:2.613;"
			d="M 99.158139 18.110458 L 181.856861 161.505641 L 16.458285 161.505641 Z M 99.158139 18.110458 "
			transform="matrix(3.452621,0,0,3.456221,0,0)" />
		<path style=" stroke:none;fill-rule:evenodd;fill:rgb(0.784314%,1.960784%,1.960784%);fill-opacity:1;"
			d="M 252.371094 309.742188 L 252.007812 307.109375 L 250.996094 304.613281 L 249.242188 302.480469 L 247.109375 300.722656 L 244.601562 299.710938 L 241.972656 299.347656 L 239.34375 299.710938 L 236.832031 300.722656 L 234.703125 302.480469 L 232.949219 304.613281 L 231.953125 307.109375 L 231.574219 309.742188 L 231.953125 312.386719 L 232.949219 314.886719 L 234.703125 317.152344 L 236.832031 318.773438 L 239.34375 319.785156 L 241.972656 320.152344 L 244.601562 319.785156 L 247.109375 318.773438 L 249.242188 317.152344 L 250.996094 314.886719 L 252.007812 312.386719 Z M 252.371094 309.742188 " />
		<path style=" stroke:none;fill-rule:evenodd;fill:rgb(0.784314%,1.960784%,1.960784%);fill-opacity:1;"
			d="M 271.050781 264.230469 L 234.460938 302.601562 L 249.496094 316.898438 L 286.085938 278.515625 Z M 271.050781 264.230469 " />
		<path style=" stroke:none;fill-rule:evenodd;fill:rgb(0.784314%,1.960784%,1.960784%);fill-opacity:1;"
			d="M 485.097656 516.667969 L 485.097656 519.9375 L 484.355469 523.070312 L 483.722656 524.566406 L 482.847656 525.957031 L 481.714844 527.199219 L 480.59375 528.335938 L 479.21875 529.347656 L 477.828125 530.089844 L 476.332031 530.710938 L 474.699219 530.96875 L 471.4375 531.089844 L 468.1875 530.96875 L 461.671875 530.347656 L 455.144531 528.957031 L 448.886719 527.335938 L 442.613281 525.324219 L 436.480469 522.949219 L 430.34375 520.691406 L 424.070312 519.179688 L 420.808594 518.558594 L 417.554688 518.183594 L 414.292969 517.925781 L 411.042969 517.925781 L 404.515625 518.425781 L 398 519.558594 L 394.871094 520.4375 L 391.730469 521.4375 L 386.09375 523.324219 L 380.453125 525.324219 L 374.816406 527.578125 L 369.179688 529.46875 L 363.285156 530.710938 L 357.390625 531.601562 L 351.375 531.964844 L 345.496094 531.964844 L 339.480469 531.46875 L 333.585938 530.347656 L 327.816406 528.710938 L 322.179688 526.578125 L 311.023438 522.433594 L 305.265625 520.691406 L 299.371094 519.300781 L 296.484375 518.679688 L 293.476562 518.304688 L 287.585938 518.058594 L 281.570312 518.425781 L 275.6875 519.300781 L 269.796875 520.691406 L 264.15625 522.570312 L 252.882812 526.699219 L 247.109375 528.457031 L 241.351562 529.832031 L 235.457031 530.710938 L 229.441406 531.089844 L 226.433594 531.222656 L 223.425781 530.710938 L 222.050781 530.347656 L 220.664062 529.589844 L 219.410156 528.835938 L 218.410156 527.835938 L 216.535156 525.460938 L 215.28125 522.691406 L 214.648438 519.800781 L 214.648438 516.792969 L 220.296875 517.804688 L 225.9375 518.304688 L 231.695312 518.425781 L 237.332031 517.925781 L 242.984375 516.925781 L 248.363281 515.414062 L 259.140625 511.40625 L 264.402344 509.394531 L 269.917969 507.773438 L 275.566406 506.640625 L 281.207031 506.140625 L 286.84375 505.882812 L 292.601562 505.882812 L 298.238281 506.261719 L 303.890625 507.261719 L 309.390625 508.652344 L 314.789062 510.40625 L 325.5625 514.414062 L 330.957031 516.292969 L 336.472656 517.683594 L 342.113281 518.558594 L 347.75 518.925781 L 353.507812 518.925781 L 359.144531 518.425781 L 364.796875 517.304688 L 370.175781 515.792969 L 380.953125 511.78125 L 386.226562 509.769531 L 391.730469 508.152344 L 397.5 506.761719 L 400.507812 506.261719 L 403.515625 506.019531 L 409.410156 505.640625 L 415.425781 505.761719 L 421.320312 506.261719 L 424.3125 506.515625 L 427.199219 507.015625 L 432.957031 508.648438 L 438.609375 510.527344 L 449.882812 514.671875 L 455.523438 516.546875 L 458.40625 517.167969 L 461.414062 517.683594 L 464.300781 518.058594 L 467.308594 518.183594 L 473.324219 518.183594 L 479.21875 517.683594 Z M 485.097656 516.667969 " />
		<path style=" stroke:none;fill-rule:evenodd;fill:rgb(0.784314%,1.960784%,1.960784%);fill-opacity:1;"
			d="M 485.097656 489.707031 L 485.097656 492.976562 L 484.355469 496.109375 L 483.722656 497.605469 L 482.847656 498.996094 L 481.714844 500.238281 L 480.59375 501.375 L 479.21875 502.371094 L 477.828125 503.128906 L 476.332031 503.628906 L 474.699219 504.007812 L 471.4375 504.007812 L 468.1875 503.882812 L 461.671875 503.25 L 455.144531 501.996094 L 448.886719 500.375 L 442.613281 498.242188 L 436.480469 495.988281 L 430.34375 493.71875 L 424.070312 492.097656 L 420.808594 491.585938 L 417.554688 491.21875 L 414.292969 490.964844 L 411.042969 490.964844 L 404.515625 491.34375 L 398 492.597656 L 394.871094 493.355469 L 391.730469 494.351562 L 386.09375 496.230469 L 374.816406 500.496094 L 369.179688 502.371094 L 363.285156 503.761719 L 357.390625 504.628906 L 351.375 505.019531 L 345.496094 505.019531 L 339.480469 504.382812 L 333.585938 503.25 L 327.816406 501.617188 L 322.179688 499.617188 L 311.023438 495.472656 L 305.265625 493.597656 L 299.371094 492.21875 L 296.484375 491.71875 L 293.476562 491.34375 L 287.585938 491.085938 L 281.570312 491.34375 L 275.6875 492.339844 L 269.796875 493.71875 L 264.15625 495.609375 L 252.882812 499.738281 L 247.109375 501.375 L 241.351562 502.75 L 235.457031 503.761719 L 229.441406 504.128906 L 226.433594 504.128906 L 223.425781 503.761719 L 222.050781 503.25 L 220.664062 502.628906 L 219.410156 501.75 L 218.410156 500.738281 L 216.535156 498.363281 L 215.28125 495.730469 L 214.648438 492.839844 L 214.648438 489.832031 L 220.296875 490.707031 L 225.9375 491.34375 L 231.695312 491.34375 L 237.332031 490.964844 L 242.984375 489.964844 L 248.363281 488.332031 L 259.140625 484.320312 L 264.402344 482.429688 L 269.917969 480.8125 L 275.566406 479.675781 L 281.207031 479.042969 L 286.84375 478.800781 L 292.601562 478.921875 L 298.238281 479.300781 L 303.890625 480.175781 L 309.390625 481.554688 L 314.789062 483.445312 L 325.5625 487.453125 L 330.957031 489.210938 L 336.472656 490.585938 L 342.113281 491.585938 L 347.75 491.964844 L 353.507812 491.964844 L 359.144531 491.34375 L 364.796875 490.34375 L 370.175781 488.710938 L 380.953125 484.820312 L 386.226562 482.808594 L 391.730469 481.175781 L 397.5 479.800781 L 400.507812 479.300781 L 403.515625 478.921875 L 409.410156 478.679688 L 415.425781 478.800781 L 421.320312 479.179688 L 424.3125 479.554688 L 427.199219 480.054688 L 432.957031 481.554688 L 438.609375 483.566406 L 449.882812 487.695312 L 455.523438 489.464844 L 458.40625 490.207031 L 461.414062 490.707031 L 464.300781 491.085938 L 467.308594 491.222656 L 473.324219 491.222656 L 479.21875 490.585938 Z M 485.097656 489.707031 " />
		<path style=" stroke:none;fill-rule:evenodd;fill:rgb(0.784314%,1.960784%,1.960784%);fill-opacity:1;"
			d="M 514.796875 414.332031 L 496.765625 429.523438 L 478.707031 444.683594 L 469.5625 452.09375 L 464.921875 455.59375 L 460.039062 458.980469 L 440.484375 471.902344 L 423.816406 466.878906 L 435.347656 460.234375 L 446.632812 453.335938 L 457.773438 446.074219 L 463.167969 442.050781 L 468.308594 437.917969 L 478.585938 429.386719 L 488.617188 420.609375 L 508.402344 402.925781 Z M 514.796875 414.332031 " />
		<path style=" stroke:none;fill-rule:evenodd;fill:rgb(0.784314%,1.960784%,1.960784%);fill-opacity:1;"
			d="M 483.980469 368.566406 L 477.207031 377.339844 L 470.316406 386.117188 L 463.046875 394.390625 L 455.277344 402.425781 L 440.484375 399.535156 L 450.640625 389.128906 L 460.417969 378.339844 L 465.042969 372.710938 L 469.5625 366.933594 L 478.085938 355.144531 Z M 483.980469 368.566406 " />
		<path style=" stroke:none;fill-rule:evenodd;fill:rgb(0.784314%,1.960784%,1.960784%);fill-opacity:1;"
			d="M 499.636719 393.894531 L 492.878906 380.851562 L 486.351562 388.882812 L 479.582031 396.78125 L 472.570312 404.558594 L 465.300781 411.957031 L 461.671875 415.210938 L 458.03125 418.34375 L 450.261719 424.121094 L 442.117188 429.386719 L 433.714844 434.152344 L 416.300781 442.804688 L 407.65625 446.953125 L 398.757812 450.824219 L 389.734375 454.214844 L 380.589844 457.480469 L 362.152344 463.246094 L 352.765625 465.878906 L 343.367188 468.132812 L 333.832031 470.023438 L 329.070312 470.644531 L 324.308594 471.023438 L 329.070312 472.898438 L 333.964844 474.414062 L 338.847656 475.789062 L 343.984375 476.789062 L 346.496094 477.167969 L 349.125 477.300781 L 354.261719 477.167969 L 359.402344 476.789062 L 364.417969 476.046875 L 369.421875 474.910156 L 374.4375 473.535156 L 384.097656 470.023438 L 393.617188 466.257812 L 403.140625 462.246094 L 421.941406 453.714844 L 431.082031 449.207031 L 439.984375 444.0625 L 448.765625 438.660156 L 457.410156 433.019531 L 465.800781 427.011719 L 469.683594 423.742188 L 473.445312 420.234375 L 486.609375 407.191406 Z M 499.636719 393.894531 " />
		<path style=" stroke:none;fill-rule:evenodd;fill:rgb(0.784314%,1.960784%,1.960784%);fill-opacity:1;"
			d="M 365.417969 374.585938 L 365.160156 371.832031 L 364.285156 369.1875 L 362.785156 366.933594 L 360.914062 364.933594 L 358.523438 363.542969 L 356.015625 362.664062 L 353.265625 362.300781 L 350.636719 362.664062 L 348.003906 363.542969 L 345.738281 364.933594 L 343.742188 366.933594 L 342.355469 369.1875 L 341.355469 371.832031 L 341.101562 374.585938 L 341.355469 377.21875 L 342.355469 379.851562 L 343.742188 382.105469 L 345.738281 384.117188 L 348.003906 385.496094 L 350.636719 386.371094 L 353.265625 386.75 L 356.015625 386.371094 L 358.523438 385.496094 L 360.914062 384.117188 L 362.785156 382.105469 L 364.285156 379.851562 L 365.160156 377.21875 Z M 365.417969 374.585938 " />
		<path style=" stroke:none;fill-rule:evenodd;fill:rgb(0.784314%,1.960784%,1.960784%);fill-opacity:1;"
			d="M 402.503906 348.625 L 321.421875 348.625 L 321.421875 373.074219 L 402.503906 373.074219 Z M 402.503906 348.625 " />
		<path style=" stroke:none;fill-rule:evenodd;fill:rgb(0.784314%,1.960784%,1.960784%);fill-opacity:1;"
			d="M 333.585938 360.789062 L 333.210938 358.15625 L 332.332031 355.523438 L 330.957031 353.269531 L 328.949219 351.257812 L 326.695312 349.878906 L 324.066406 349.003906 L 321.421875 348.625 L 318.671875 349.003906 L 316.042969 349.878906 L 313.789062 351.257812 L 311.902344 353.269531 L 310.402344 355.523438 L 309.527344 358.15625 L 309.148438 360.789062 L 309.527344 363.542969 L 310.402344 366.175781 L 311.902344 368.429688 L 313.789062 370.441406 L 316.042969 371.832031 L 318.671875 372.710938 L 321.421875 373.074219 L 324.066406 372.710938 L 326.695312 371.832031 L 328.949219 370.441406 L 330.957031 368.429688 L 332.332031 366.175781 L 333.210938 363.542969 Z M 333.585938 360.789062 " />
		<path style=" stroke:none;fill-rule:evenodd;fill:rgb(0.784314%,1.960784%,1.960784%);fill-opacity:1;"
			d="M 311.160156 351.257812 L 310.902344 348.503906 L 309.890625 345.992188 L 308.515625 343.617188 L 306.519531 341.726562 L 304.253906 340.214844 L 301.625 339.347656 L 298.996094 339.09375 L 296.242188 339.347656 L 293.734375 340.214844 L 291.347656 341.726562 L 289.472656 343.617188 L 287.976562 345.992188 L 287.085938 348.503906 L 286.707031 351.257812 L 287.085938 353.890625 L 287.976562 356.523438 L 289.472656 358.914062 L 291.347656 360.789062 L 293.734375 362.300781 L 296.242188 363.179688 L 298.996094 363.421875 L 301.625 363.179688 L 304.253906 362.300781 L 306.519531 360.789062 L 308.515625 358.914062 L 309.890625 356.523438 L 310.902344 353.890625 Z M 311.160156 351.257812 " />
		<path style=" stroke:none;fill-rule:evenodd;fill:rgb(0.784314%,1.960784%,1.960784%);fill-opacity:1;"
			d="M 358.027344 363.300781 L 303.753906 339.96875 L 294.113281 362.421875 L 348.503906 385.738281 Z M 358.027344 363.300781 " />
		<path style=" stroke:none;fill-rule:evenodd;fill:rgb(0.784314%,1.960784%,1.960784%);fill-opacity:1;"
			d="M 367.683594 281.402344 L 367.425781 278.648438 L 366.292969 276.136719 L 364.660156 274.003906 L 362.542969 272.371094 L 360.023438 271.371094 L 357.390625 270.996094 L 354.640625 271.371094 L 352.132812 272.371094 L 350 274.003906 L 348.371094 276.136719 L 347.371094 278.648438 L 346.992188 281.402344 L 347.371094 284.035156 L 348.371094 286.546875 L 350 288.679688 L 352.132812 290.3125 L 354.640625 291.3125 L 357.390625 291.691406 L 360.023438 291.3125 L 362.542969 290.3125 L 364.660156 288.679688 L 366.292969 286.546875 L 367.425781 284.035156 Z M 367.683594 281.402344 " />
		<path style=" stroke:none;fill-rule:evenodd;fill:rgb(0.784314%,1.960784%,1.960784%);fill-opacity:1;"
			d="M 335.71875 260.707031 L 318.039062 275.761719 L 287.71875 346.492188 L 332.589844 365.675781 L 362.785156 294.945312 L 361.410156 271.75 Z M 335.71875 260.707031 " />
		<path style=" stroke:none;fill-rule:evenodd;fill:rgb(0.784314%,1.960784%,1.960784%);fill-opacity:1;"
			d="M 450.640625 347.625 L 450.261719 344.992188 L 449.265625 342.480469 L 447.496094 340.347656 L 445.367188 338.59375 L 442.871094 337.59375 L 440.242188 337.214844 L 437.476562 337.59375 L 435.101562 338.59375 L 432.835938 340.347656 L 431.21875 342.480469 L 430.207031 344.992188 L 429.828125 347.625 L 430.207031 350.378906 L 431.21875 352.757812 L 432.835938 355.023438 L 435.101562 356.644531 L 437.476562 357.65625 L 440.242188 358.035156 L 442.871094 357.65625 L 445.367188 356.644531 L 447.496094 355.023438 L 449.265625 352.757812 L 450.261719 350.378906 Z M 450.640625 347.625 " />
		<path style=" stroke:none;fill-rule:evenodd;fill:rgb(0.784314%,1.960784%,1.960784%);fill-opacity:1;"
			d="M 446.753906 339.472656 L 433.714844 355.78125 L 350.878906 289.4375 L 363.785156 273.25 Z M 446.753906 339.472656 " />
		<path style=" stroke:none;fill-rule:evenodd;fill:rgb(0.784314%,1.960784%,1.960784%);fill-opacity:1;"
			d="M 414.671875 360.789062 L 414.292969 358.15625 L 413.417969 355.523438 L 412.039062 353.269531 L 410.03125 351.257812 L 407.777344 349.878906 L 405.148438 349.003906 L 402.503906 348.625 L 399.753906 349.003906 L 397.125 349.878906 L 394.871094 351.257812 L 392.996094 353.269531 L 391.488281 355.523438 L 390.609375 358.15625 L 390.230469 360.789062 L 390.609375 363.542969 L 391.488281 366.175781 L 392.996094 368.429688 L 394.871094 370.441406 L 397.125 371.832031 L 399.753906 372.710938 L 402.503906 373.074219 L 405.148438 372.710938 L 407.777344 371.832031 L 410.03125 370.441406 L 412.039062 368.429688 L 413.417969 366.175781 L 414.292969 363.542969 Z M 414.671875 360.789062 " />
		<path style=" stroke:none;fill-rule:evenodd;fill:rgb(0.784314%,1.960784%,1.960784%);fill-opacity:1;"
			d="M 288.972656 271.371094 L 288.597656 268.617188 L 287.585938 266.105469 L 285.964844 263.972656 L 283.714844 262.339844 L 281.207031 261.339844 L 278.5625 260.964844 L 275.933594 261.339844 L 273.4375 262.339844 L 271.304688 263.972656 L 269.539062 266.105469 L 268.539062 268.617188 L 268.164062 271.371094 L 268.539062 274.003906 L 269.539062 276.515625 L 271.304688 278.648438 L 273.4375 280.285156 L 275.933594 281.402344 L 278.5625 281.660156 L 281.207031 281.402344 L 283.714844 280.285156 L 285.964844 278.648438 L 287.585938 276.515625 L 288.597656 274.003906 Z M 288.972656 271.371094 " />
		<path style=" stroke:none;fill-rule:evenodd;fill:rgb(0.784314%,1.960784%,1.960784%);fill-opacity:1;"
			d="M 331.457031 259.964844 L 278.320312 260.964844 L 278.816406 281.660156 L 331.835938 280.660156 Z M 331.457031 259.964844 " />
		<path style=" stroke:none;fill-rule:evenodd;fill:rgb(0.784314%,1.960784%,1.960784%);fill-opacity:1;"
			d="M 341.976562 270.238281 L 341.613281 267.605469 L 340.601562 265.109375 L 338.96875 262.976562 L 336.714844 261.339844 L 334.34375 260.207031 L 331.578125 259.964844 L 328.949219 260.207031 L 326.441406 261.339844 L 324.308594 262.976562 L 322.691406 265.109375 L 321.558594 267.605469 L 321.179688 270.238281 L 321.558594 273.007812 L 322.691406 275.515625 L 324.308594 277.652344 L 326.441406 279.269531 L 328.949219 280.285156 L 331.578125 280.660156 L 334.34375 280.285156 L 336.714844 279.269531 L 338.96875 277.652344 L 340.601562 275.515625 L 341.613281 273.007812 Z M 341.976562 270.238281 " />
		<path style=" stroke:none;fill-rule:evenodd;fill:rgb(0.784314%,1.960784%,1.960784%);fill-opacity:1;"
			d="M 379.957031 239.902344 L 379.699219 236.378906 L 378.703125 232.988281 L 377.203125 229.859375 L 375.195312 226.980469 L 372.808594 224.46875 L 369.921875 222.460938 L 366.671875 220.960938 L 363.285156 220.082031 L 359.777344 219.828125 L 356.394531 220.082031 L 353.007812 220.960938 L 349.757812 222.460938 L 346.871094 224.46875 L 344.484375 226.980469 L 342.355469 229.859375 L 340.980469 232.988281 L 339.980469 236.378906 L 339.722656 239.902344 L 339.980469 243.414062 L 340.980469 246.789062 L 342.355469 249.933594 L 344.484375 252.808594 L 346.871094 255.320312 L 349.757812 257.332031 L 353.007812 258.832031 L 356.394531 259.707031 L 359.777344 260.085938 L 363.285156 259.707031 L 366.671875 258.832031 L 369.921875 257.332031 L 372.808594 255.320312 L 375.195312 252.808594 L 377.203125 249.933594 L 378.703125 246.789062 L 379.699219 243.414062 Z M 379.957031 239.902344 " />
		<path style=" stroke:none;fill-rule:evenodd;fill:rgb(0.784314%,1.960784%,1.960784%);fill-opacity:1;"
			d="M 342.234375 369.320312 L 318.550781 420.113281 L 291.105469 426.253906 L 277.5625 429.644531 L 270.792969 431.519531 L 264.035156 433.652344 L 257.386719 435.90625 L 250.875 438.296875 L 237.84375 443.683594 L 225.179688 449.585938 L 212.53125 455.96875 L 215.660156 458.238281 L 219.042969 460.113281 L 222.550781 461.492188 L 226.3125 462.371094 L 230.078125 463.003906 L 233.949219 463.367188 L 241.59375 463.882812 L 256.886719 464.246094 L 264.65625 464.125 L 272.304688 463.882812 L 287.585938 462.746094 L 302.878906 461.113281 L 318.039062 458.859375 L 333.210938 456.226562 L 340.722656 454.59375 L 348.246094 452.839844 L 355.640625 450.828125 L 362.90625 448.570312 L 370.3125 446.316406 L 377.566406 443.683594 L 391.863281 438.296875 L 406.027344 432.277344 L 419.929688 425.753906 L 433.472656 418.601562 L 440.105469 414.589844 L 446.5 410.324219 L 411.40625 404.800781 L 393.996094 407.8125 L 413.539062 366.054688 L 391.488281 355.644531 L 364.917969 412.335938 L 348.003906 414.589844 L 364.285156 379.730469 Z M 342.234375 369.320312 " />
	</g>
</svg>
