<?xml version="1.0" encoding="UTF-8" standalone="no"?>
<svg
   xmlns:dc="http://purl.org/dc/elements/1.1/"
   xmlns:cc="http://creativecommons.org/ns#"
   xmlns:rdf="http://www.w3.org/1999/02/22-rdf-syntax-ns#"
   xmlns:svg="http://www.w3.org/2000/svg"
   xmlns="http://www.w3.org/2000/svg"
   xmlns:sodipodi="http://sodipodi.sourceforge.net/DTD/sodipodi-0.dtd"
   xmlns:inkscape="http://www.inkscape.org/namespaces/inkscape"
   height="525"
   width="600"
   version="1.1"
   id="svg1859"
   sodipodi:docname="ISO_7010_W072.svg"
   inkscape:version="1.0.2-2 (e86c870879, 2021-01-15)">
  <defs
     id="defs1863" />
  <sodipodi:namedview
     id="namedview1861"
     pagecolor="#ffffff"
     bordercolor="#666666"
     borderopacity="1.0"
     inkscape:showpageshadow="2"
     inkscape:pageopacity="0.0"
     inkscape:pagecheckerboard="0"
     inkscape:deskcolor="#d1d1d1"
     showgrid="false"
     inkscape:zoom="0.76795455"
     inkscape:cx="478.58423"
     inkscape:cy="373.83513"
     inkscape:window-width="1920"
     inkscape:window-height="1001"
     inkscape:window-x="-9"
     inkscape:window-y="-9"
     inkscape:window-maximized="1"
     inkscape:current-layer="g8212"
     inkscape:document-rotation="0" />
  <metadata
     id="metadata1845">
    <rdf:RDF>
      <cc:Work
         rdf:about="">
        <dc:format>image/svg+xml</dc:format>
        <dc:type
           rdf:resource="http://purl.org/dc/dcmitype/StillImage" />
      </cc:Work>
    </rdf:RDF>
  </metadata>
  <path
     d="M597.6,499.6,313.8,8c-2.9-5-8.2-8-13.9-8s-11,3.1-13.9,8l-283.8,491.6c-2.9,5-2.9,11.1,0,16,2.9,5,8.2,8,13.9,8h567.6c5.7,0,11-3.1,13.9-8,2.9-5,2.9-11.1,0-16z"
     id="path1847" />
  <polygon
     points="43.875,491.5,299.88,48.2,555.88,491.5"
     fill="#f6bd16"
     transform="matrix(1,0,0,0.99591458,0.125,2.0332437)"
     id="polygon1849"
     style="fill:#f9a800;fill-opacity:1" />
  <g
     id="g8212"
     transform="translate(4.183741)">
    <path
       d="M 187.47197,357.92095 H 423.11218"
       id="path55104"
       style="stroke:#000000;stroke-width:4.1899" />
    <path
       stroke-width="3.35192"
       d="m 387.74939,400.49038 c 0,0 41.80787,9.248 27.6366,23.699 -22.7617,16.20452 -12.99122,20.43793 -1.06299,25.66039 15.85815,7.23562 12.37516,5.96253 22.56484,13.02529 l -248.49409,-1.26655 c 0,0 11.46857,-16.02294 33.97389,-14.91412 101.00755,1.73194 84.24308,-27.88853 89.29309,-22.65675 m -63.45191,-21.77074 1.35753,-71.56357 -35.79854,-19.44115 c 0,0 -5.43849,-3.62846 -13.13954,-1.35753 -2.72344,0.90502 -6.34351,1.81004 -6.34351,1.81004 0,0 19.52495,-16.31549 23.11151,-14.94958 3.62845,1.35753 29.00251,13.59205 29.00251,13.59205 0,0 -2.72343,-19.03054 -9.51946,-24.46904 -6.79602,-5.43849 -33.0751,-26.27908 -33.0751,-26.27908 v -4.98598 l 35.79854,21.75398 c 0,0 1.35753,-20.84058 -5.86587,-33.0751 -7.24853,-12.23452 -12.65351,-23.11151 -12.65351,-23.11151 l 2.26255,-1.81004 17.6814,27.18409 5.86586,-18.60317 3.62846,-0.90502 c 0,0 -4.53348,26.27908 -1.35753,34.44101 3.17595,8.15356 14.94958,52.56654 14.94958,52.56654 l 17.68139,-25.39082 c 0,0 0.45251,-10.42448 -0.45251,-17.68139 -0.90502,-7.24854 -2.26254,-40.78453 -2.26254,-40.78453 h 3.17594 l 4.98599,36.70356 28.57514,-33.0751 v 3.62845 c 0,0 -28.08073,35.36279 -26.7232,43.07222 1.35753,7.70104 2.71505,12.23452 -2.26255,23.11151 -4.97761,10.87699 -8.15356,18.60317 -8.15356,18.60317 0,0 14.94958,-17.68139 21.75399,-19.03054 6.79602,-0.45251 15.84621,0.45251 22.18973,-4.98599 6.34351,-5.43849 21.75398,-22.62548 21.75398,-22.62548 l -24.01653,37.12255 c 0,0 -11.32112,0.45251 -15.84622,5.43849 -4.53347,4.98599 -23.11151,26.27908 -23.11151,26.27908 v 48.93808 l 30.80418,15.40209 -37.6002,5.43849 -9.06695,13.13954 -12.23452,-10.42448 -34.03878,3.12986 z"
       id="path55106"
       style="stroke:#000000"
       sodipodi:nodetypes="ccccccccccccccscccccccccccccccccccsccsccccccccccc" />
    <path
       fill="#ffffff"
       d="m 297.66645,423.19966 c 8.62282,-3.59494 22.62548,-9.51947 30.80417,-21.30148 8.46361,-12.18424 38.5136,-63.43514 79.77578,-59.32904 -2.26255,5.4385 -9.51946,17.22051 -9.51946,17.22051 l 29.41312,-9.06695 c 0,0 0.45251,38.9661 -55.28159,63.85413 -25.82657,9.06696 -31.25669,9.51947 -33.51923,12.65351 -2.26255,3.17595 -12.65351,19.03055 -12.65351,19.03055 l -46.20627,-20.36294 c 0,0 11.78201,-0.43156 17.18699,-2.6941 z"
       id="path55108"
       style="fill:#f9a800;fill-opacity:1;stroke:#000000;stroke-width:4.1899" />
    <ellipse
       cy="373.50739"
       cx="405.84973"
       rx="4.9859858"
       ry="4.298842"
       id="ellipse55112"
       style="stroke-width:0.837981" />
  </g>
</svg>
